<svg xmlns="http://www.w3.org/2000/svg" width="1600" height="400" viewBox="0 0 1600 400"><rect width="1600" height="400" fill="#7C1226"/><g transform="translate(124.400,113.600) scale(1.60000)"><path d="M49.36 17.31 L47.99 17.67 L46.63 18.08 L45.29 18.53 L43.96 19.03 L42.65 19.56 L41.36 20.14 L40.09 20.76 L38.83 21.43 L37.60 22.13 L36.39 22.87 L35.21 23.65 L34.05 24.46 L32.92 25.32 L31.82 26.21 L30.75 27.13 L29.71 28.09 L28.69 29.08 L27.72 30.10 L26.77 31.16 L25.86 32.24 L24.98 33.36 L24.14 34.50 L23.34 35.66 L22.58 36.86 L21.85 38.07 L21.17 39.31 L20.52 40.57 L19.92 41.85 L19.35 43.15 L18.83 44.47 L18.35 45.80 L17.92 47.15 L17.53 48.51 L17.18 49.89 L16.87 51.27 L16.62 52.66 L16.40 54.06 L16.23 55.47 L16.11 56.88 L16.03 58.29 L16.00 59.71 L16.01 61.13 L16.07 62.54 L16.18 63.95 L16.33 65.36 L16.52 66.77 L16.76 68.16 L17.05 69.55 L17.38 70.93 L17.75 72.29 L18.17 73.65 L18.63 74.98 L19.13 76.31 L19.68 77.62 L20.27 78.90 L20.90 80.17 L21.57 81.42 L22.28 82.65 L23.02 83.85 L23.81 85.03 L24.64 86.18 L25.50 87.30 L26.39 88.40 L27.32 89.47 L28.29 90.50 L29.29 91.51 L30.32 92.48 L31.38 93.42 L32.47 94.32 L33.59 95.19 L34.73 96.02 L35.91 96.82 L37.10 97.57 L38.33 98.29 L39.57 98.97 L40.83 99.61 L42.12 100.20 L43.42 100.76 L44.74 101.27 L46.08 101.74 L47.43 102.17 L48.79 102.55 L50.17 102.89 L51.55 103.18 L52.95 103.43 L54.35 103.64 L55.76 103.79 L57.17 103.91 L58.58 103.98 L60.00 104.00 L61.42 103.98 L62.83 103.91 L64.24 103.79 L65.65 103.64 L67.05 103.43 L68.45 103.18 L69.83 102.89 L71.21 102.55 L72.57 102.17 L73.92 101.74 L75.26 101.27 L76.58 100.76 L77.88 100.20 L79.17 99.61 L80.43 98.97 L81.67 98.29 L82.90 97.57 L84.09 96.82 L85.27 96.02 L86.41 95.19 L87.53 94.32 L88.62 93.42 L89.68 92.48 L90.71 91.51 L91.71 90.50 L92.68 89.47 L93.61 88.40 L94.50 87.30 L95.36 86.18 L96.19 85.03 L96.98 83.85 L97.72 82.65 L98.43 81.42 L99.10 80.17 L99.73 78.90 L100.32 77.62 L100.87 76.31 L101.37 74.98 L101.83 73.65 L102.25 72.29 L102.62 70.93 L102.95 69.55 L103.24 68.16 L103.48 66.77 L103.67 65.36 L103.82 63.95 L103.93 62.54 L103.99 61.13 L104.00 59.71 L103.97 58.29 L103.89 56.88 L103.77 55.47 L103.60 54.06 L103.38 52.66 L103.13 51.27 L102.82 49.89 L102.47 48.51 L102.08 47.15 L101.65 45.80 L101.17 44.47 L100.65 43.15 L100.08 41.85 L99.48 40.57 L98.83 39.31 L98.15 38.07 L97.42 36.86 L96.66 35.66 L95.86 34.50 L95.02 33.36 L94.14 32.24 L93.23 31.16 L92.28 30.10 L91.31 29.08 L90.29 28.09 L89.25 27.13 L88.18 26.21 L87.08 25.32 L85.95 24.46 L84.79 23.65 L83.61 22.87 L82.40 22.13 L81.17 21.43 L79.91 20.76 L78.64 20.14 L77.35 19.56 L76.04 19.03 L74.71 18.53 L73.37 18.08 L72.01 17.67 L70.64 17.31 L70.52 17.79 L71.85 18.24 L73.16 18.73 L74.46 19.26 L75.73 19.82 L76.98 20.43 L78.20 21.08 L79.41 21.76 L80.59 22.49 L81.74 23.24 L82.86 24.04 L83.96 24.86 L85.03 25.72 L86.06 26.62 L87.07 27.54 L88.04 28.49 L88.98 29.47 L89.89 30.48 L90.76 31.52 L91.60 32.58 L92.40 33.66 L93.16 34.77 L93.89 35.89 L94.58 37.04 L95.23 38.21 L95.85 39.40 L96.42 40.60 L96.95 41.82 L97.45 43.05 L97.90 44.29 L98.31 45.55 L98.69 46.81 L99.02 48.09 L99.31 49.37 L99.56 50.66 L99.77 51.95 L99.94 53.25 L100.06 54.54 L100.15 55.84 L100.19 57.14 L100.19 58.44 L100.15 59.74 L100.07 61.03 L99.95 62.31 L99.80 63.59 L99.60 64.86 L99.36 66.12 L99.08 67.38 L98.76 68.62 L98.41 69.85 L98.02 71.06 L97.59 72.26 L97.12 73.45 L96.62 74.61 L96.08 75.76 L95.51 76.89 L94.90 78.01 L94.26 79.10 L93.59 80.16 L92.88 81.21 L92.15 82.23 L91.38 83.23 L90.58 84.20 L89.75 85.14 L88.90 86.06 L88.02 86.95 L87.11 87.81 L86.18 88.65 L85.22 89.45 L84.24 90.22 L83.23 90.96 L82.21 91.67 L81.16 92.34 L80.10 92.98 L79.01 93.59 L77.91 94.16 L76.79 94.70 L75.66 95.21 L74.51 95.67 L73.35 96.11 L72.17 96.50 L70.99 96.86 L69.79 97.18 L68.59 97.47 L67.38 97.71 L66.16 97.92 L64.93 98.09 L63.70 98.23 L62.47 98.32 L61.24 98.38 L60.00 98.40 L58.76 98.38 L57.53 98.32 L56.30 98.23 L55.07 98.09 L53.84 97.92 L52.62 97.71 L51.41 97.47 L50.21 97.18 L49.01 96.86 L47.83 96.50 L46.65 96.11 L45.49 95.67 L44.34 95.21 L43.21 94.70 L42.09 94.16 L40.99 93.59 L39.90 92.98 L38.84 92.34 L37.79 91.67 L36.77 90.96 L35.76 90.22 L34.78 89.45 L33.82 88.65 L32.89 87.81 L31.98 86.95 L31.10 86.06 L30.25 85.14 L29.42 84.20 L28.62 83.23 L27.85 82.23 L27.12 81.21 L26.41 80.16 L25.74 79.10 L25.10 78.01 L24.49 76.89 L23.92 75.76 L23.38 74.61 L22.88 73.45 L22.41 72.26 L21.98 71.06 L21.59 69.85 L21.24 68.62 L20.92 67.38 L20.64 66.12 L20.40 64.86 L20.20 63.59 L20.05 62.31 L19.93 61.03 L19.85 59.74 L19.81 58.44 L19.81 57.14 L19.85 55.84 L19.94 54.54 L20.06 53.25 L20.23 51.95 L20.44 50.66 L20.69 49.37 L20.98 48.09 L21.31 46.81 L21.69 45.55 L22.10 44.29 L22.55 43.05 L23.05 41.82 L23.58 40.60 L24.15 39.40 L24.77 38.21 L25.42 37.04 L26.11 35.89 L26.84 34.77 L27.60 33.66 L28.40 32.58 L29.24 31.52 L30.11 30.48 L31.02 29.47 L31.96 28.49 L32.93 27.54 L33.94 26.62 L34.97 25.72 L36.04 24.86 L37.14 24.04 L38.26 23.24 L39.41 22.49 L40.59 21.76 L41.80 21.08 L43.02 20.43 L44.27 19.82 L45.54 19.26 L46.84 18.73 L48.15 18.24 L49.48 17.79 Z" fill="#F7F2E9"/><path d="M60 4.0 L78.44 41.88 L41.56 41.88 Z" fill="#F7F2E9"/><path d="M41.55 42.12 L78.45 42.12 L60 90.0 Z" fill="#F7F2E9"/></g><g transform="translate(346.800,228.000)"><path d="M40.9472 0.0H3.9424Q3.7632 0.0 3.7632 -0.5376Q3.7632 -1.0752 3.9424 -1.0752Q7.3472 -1.0752 9.0496 -1.5232Q10.752 -1.9712 11.3344 -3.3152Q11.9168 -4.6592 11.9168 -7.2576V-48.742399999999996Q11.9168 -51.3408 11.3344 -52.64Q10.752 -53.9392 9.0496 -54.432Q7.3472 -54.9248 3.9424 -54.9248Q3.7632 -54.9248 3.7632 -55.4624Q3.7632 -56.0 3.9424 -56.0H39.424Q40.2304 -56.0 40.2304 -55.193599999999996L40.4096 -44.352Q40.4096 -44.0832 39.916799999999995 -44.0832Q39.424 -44.0832 39.424 -44.352Q39.424 -49.0112 37.0048 -51.6544Q34.5856 -54.2976 30.6432 -54.2976H24.4608Q21.145599999999998 -54.2976 19.488 -53.8496Q17.8304 -53.4016 17.248 -52.1024Q16.6656 -50.8032 16.6656 -48.2048V-7.616Q16.6656 -5.1072 17.248 -3.8528Q17.8304 -2.5984 19.488 -2.1504Q21.145599999999998 -1.7024 24.4608 -1.7024H32.704Q36.288 -1.7024 38.886399999999995 -4.8384Q41.4848 -7.9744 42.112 -13.0816Q42.112 -13.3504 42.6496 -13.3056Q43.1872 -13.2608 43.1872 -12.991999999999999Q42.8288 -10.6624 42.6048 -7.3919999999999995Q42.3808 -4.1216 42.3808 -1.344Q42.3808 0.0 40.9472 0.0ZM35.9296 -21.056Q35.9296 -25.088 34.227199999999996 -26.7008Q32.5248 -28.3136 28.224 -28.3136H14.4256V-30.016H28.4928Q32.614399999999996 -30.016 34.227199999999996 -31.404799999999998Q35.839999999999996 -32.7936 35.839999999999996 -36.1984Q35.839999999999996 -36.3776 36.3776 -36.3776Q36.9152 -36.3776 36.9152 -36.1984Q36.9152 -33.6 36.870400000000004 -32.1664Q36.8256 -30.7328 36.8256 -29.12Q36.8256 -27.1488 36.9152 -25.2224Q37.0048 -23.296 37.0048 -21.056Q37.0048 -20.8768 36.467200000000005 -20.8768Q35.9296 -20.8768 35.9296 -21.056Z M74.6368 -9.3184 75.5328 -53.9392 77.50399999999999 -53.76 76.6976 -9.3184Q76.608 -4.7488 78.176 -2.912Q79.744 -1.0752 84.22399999999999 -1.0752Q84.4032 -1.0752 84.4032 -0.5376Q84.4032 0.0 84.22399999999999 0.0Q82.2528 0.0 80.1472 -0.0896Q78.0416 -0.1792 75.5328 -0.1792Q73.3824 -0.1792 71.41120000000001 -0.0896Q69.44 0.0 67.648 0.0Q67.4688 0.0 67.4688 -0.5376Q67.4688 -1.0752 67.648 -1.0752Q71.4112 -1.0752 72.97919999999999 -2.912Q74.5472 -4.7488 74.6368 -9.3184ZM136.192 -1.0752Q136.4608 -1.0752 136.4608 -0.5376Q136.4608 0.0 136.192 0.0Q134.04160000000002 0.0 131.3984 -0.0896Q128.7552 -0.1792 125.7984 -0.1792Q123.02080000000001 -0.1792 120.69120000000001 -0.0896Q118.3616 0.0 116.47999999999999 0.0Q116.3008 0.0 116.3008 -0.5376Q116.3008 -1.0752 116.47999999999999 -1.0752Q120.96000000000001 -1.0752 122.2592 -2.2399999999999998Q123.5584 -3.4048 123.3792 -7.2576L121.7664 -51.4304L124.3648 -54.745599999999996L100.8896 -0.6272Q100.8 -0.2688 100.1728 -0.2688Q99.54560000000001 -0.2688 99.3664 -0.6272L77.50399999999999 -48.5632Q74.6368 -54.9248 68.2752 -54.9248Q68.096 -54.9248 68.096 -55.4624Q68.096 -56.0 68.2752 -56.0Q69.61919999999999 -56.0 71.1424 -55.910399999999996Q72.6656 -55.8208 73.6512 -55.8208Q74.90559999999999 -55.8208 75.98079999999999 -55.910399999999996Q77.056 -56.0 77.5936 -56.0Q78.848 -56.0 79.56479999999999 -55.1936Q80.2816 -54.3872 81.7152 -51.3408L102.2336 -6.9888L99.904 -3.2256L121.9456 -53.76Q122.39359999999999 -54.745599999999996 123.1552 -55.3728Q123.9168 -56.0 124.6336 -56.0Q125.0816 -56.0 125.9776 -55.910399999999996Q126.8736 -55.8208 128.0384 -55.8208Q130.368 -55.8208 131.8016 -55.910399999999996Q133.2352 -56.0 134.848 -56.0Q135.0272 -56.0 135.0272 -55.4624Q135.0272 -54.9248 134.848 -54.9248Q130.4576 -54.9248 128.3968 -53.8048Q126.336 -52.6848 126.4256 -48.9216L128.128 -7.2576Q128.2176 -4.6592 128.8 -3.3152Q129.38240000000002 -1.9712 131.0848 -1.5232Q132.78719999999998 -1.0752 136.192 -1.0752Z M171.0464 -7.616Q171.0464 -4.928 171.808 -3.5392Q172.56959999999998 -2.1504 174.98879999999997 -1.6128Q177.408 -1.0752 182.2464 -1.0752Q182.5152 -1.0752 182.5152 -0.5376Q182.5152 0.0 182.2464 0.0Q179.3792 0.0 176.0192 -0.0896Q172.6592 -0.1792 168.7168 -0.1792Q165.84959999999998 -0.1792 163.1616 -0.0896Q160.4736 0.0 158.32319999999999 0.0Q158.144 0.0 158.144 -0.5376Q158.144 -1.0752 158.32319999999999 -1.0752Q161.72799999999998 -1.0752 163.4304 -1.5232Q165.1328 -1.9712 165.71519999999998 -3.3152Q166.2976 -4.6592 166.2976 -7.2576V-48.742399999999996Q166.2976 -51.3408 165.71519999999998 -52.64Q165.1328 -53.9392 163.4304 -54.432Q161.72799999999998 -54.9248 158.32319999999999 -54.9248Q158.144 -54.9248 158.144 -55.4624Q158.144 -56.0 158.32319999999999 -56.0Q160.4736 -56.0 163.1168 -55.8656Q165.76 -55.7312 168.6272 -55.7312Q170.9568 -55.7312 174.272 -56.0Q177.5872 -56.2688 181.1712 -56.2688Q186.0992 -56.2688 190.13119999999998 -54.745599999999996Q194.1632 -53.2224 196.5376 -49.9968Q198.91199999999998 -46.7712 198.91199999999998 -41.5744Q198.91199999999998 -36.8256 197.12 -33.4208Q195.328 -30.016 192.416 -27.8208Q189.504 -25.6256 186.00959999999998 -24.5504Q182.5152 -23.4752 179.1104 -23.4752Q177.94559999999998 -23.4752 176.8256 -23.564799999999998Q175.7056 -23.6544 174.72 -23.9232Q174.36159999999998 -24.0128 174.49599999999998 -24.5952Q174.6304 -25.177599999999998 174.8992 -25.088Q175.7056 -24.9088 176.5568 -24.819200000000002Q177.408 -24.7296 178.1248 -24.7296Q182.06719999999999 -24.7296 185.5616 -26.3424Q189.05599999999998 -27.9552 191.20639999999997 -31.315199999999997Q193.3568 -34.6752 193.3568 -39.7824Q193.3568 -44.7104 191.4304 -48.1152Q189.504 -51.519999999999996 186.27839999999998 -53.312Q183.0528 -55.104 179.1104 -55.104Q175.88479999999998 -55.104 174.1376 -54.7904Q172.3904 -54.4768 171.7184 -53.1328Q171.0464 -51.7888 171.0464 -48.5632Z M242.81599999999997 -25.983999999999998 256.79359999999997 -47.129599999999996Q259.3024 -51.072 258.5856 -52.998400000000004Q257.86879999999996 -54.9248 253.92639999999997 -54.9248Q253.74719999999996 -54.9248 253.74719999999996 -55.4624Q253.74719999999996 -56.0 253.92639999999997 -56.0Q256.256 -56.0 258.40639999999996 -55.8656Q260.55679999999995 -55.7312 263.9616 -55.7312Q266.2016 -55.7312 267.5904 -55.8656Q268.9792 -56.0 270.95039999999995 -56.0Q271.1296 -56.0 271.1296 -55.4624Q271.1296 -54.9248 270.95039999999995 -54.9248Q268.7104 -54.9248 266.55999999999995 -53.983999999999995Q264.40959999999995 -53.0432 262.48319999999995 -51.2512Q260.55679999999995 -49.4592 258.8544 -46.8608L244.2496 -24.7296ZM242.9056 -24.2816 226.1504 -48.5632Q223.82079999999996 -52.0576 221.58079999999995 -53.4912Q219.34079999999997 -54.9248 216.02559999999997 -54.9248Q215.75679999999997 -54.9248 215.75679999999997 -55.4624Q215.75679999999997 -56.0 216.02559999999997 -56.0Q217.54879999999997 -56.0 219.296 -55.8656Q221.04319999999998 -55.7312 222.5664 -55.7312Q224.98559999999998 -55.7312 227.09119999999996 -55.775999999999996Q229.19679999999997 -55.8208 231.0784 -55.910399999999996Q232.95999999999998 -56.0 234.48319999999998 -56.0Q234.6624 -56.0 234.6624 -55.4624Q234.6624 -54.9248 234.48319999999998 -54.9248Q230.8096 -54.9248 229.82399999999998 -54.118399999999994Q228.83839999999998 -53.312 230.272 -51.3408L246.22079999999997 -28.4032ZM241.47199999999998 -27.776 246.22079999999997 -28.5824V-7.2576Q246.22079999999997 -4.6592 246.7584 -3.3152Q247.296 -1.9712 248.9984 -1.5232Q250.7008 -1.0752 254.10559999999998 -1.0752Q254.37439999999998 -1.0752 254.37439999999998 -0.5376Q254.37439999999998 0.0 254.10559999999998 0.0Q252.04479999999998 0.0 249.44639999999998 -0.0896Q246.84799999999998 -0.1792 243.80159999999998 -0.1792Q240.84479999999996 -0.1792 238.15679999999998 -0.0896Q235.4688 0.0 233.408 0.0Q233.1392 0.0 233.1392 -0.5376Q233.1392 -1.0752 233.408 -1.0752Q236.81279999999998 -1.0752 238.55999999999997 -1.5232Q240.30719999999997 -1.9712 240.88959999999997 -3.3152Q241.47199999999998 -4.6592 241.47199999999998 -7.2576Z M335.104 0.0Q333.5808 0.0 330.0864 -3.4944Q326.592 -6.9888 321.664 -13.4848Q316.736 -19.9808 310.6432 -28.8512L314.944 -30.1952Q322.6496 -19.3536 328.0256 -12.9472Q333.4016 -6.5408 337.5232 -3.808Q341.6448 -1.0752 345.4976 -1.0752Q345.7664 -1.0752 345.7664 -0.5376Q345.7664 0.0 345.4976 0.0Q341.4656 0.0 338.91200000000003 0.0Q336.3584 0.0 335.104 0.0ZM311.7184 -56.2688Q318.6176 -56.2688 322.2464 -52.953599999999994Q325.8752 -49.6384 325.8752 -44.352Q325.8752 -39.6032 323.0976 -35.7504Q320.32 -31.8976 315.7056 -29.657600000000002Q311.0912 -27.4176 305.536 -27.4176Q304.7296 -27.4176 303.6544 -27.507199999999997Q302.5792 -27.596799999999998 301.6832 -27.6864V-7.2576Q301.6832 -4.6592 302.2208 -3.3152Q302.7584 -1.9712 304.50559999999996 -1.5232Q306.2528 -1.0752 309.6576 -1.0752Q309.9264 -1.0752 309.9264 -0.5376Q309.9264 0.0 309.6576 0.0Q307.5072 0.0 304.9536 -0.0896Q302.4 -0.1792 299.264 -0.1792Q296.3968 -0.1792 293.7088 -0.0896Q291.0208 0.0 288.8704 0.0Q288.6912 0.0 288.6912 -0.5376Q288.6912 -1.0752 288.8704 -1.0752Q292.2752 -1.0752 294.02239999999995 -1.5232Q295.76959999999997 -1.9712 296.3968 -3.3152Q297.024 -4.6592 297.024 -7.2576V-48.742399999999996Q297.024 -51.3408 296.4416 -52.64Q295.8592 -53.9392 294.1568 -54.432Q292.4544 -54.9248 289.0496 -54.9248Q288.7808 -54.9248 288.7808 -55.4624Q288.7808 -56.0 289.0496 -56.0Q291.11039999999997 -56.0 293.7536 -55.8656Q296.3968 -55.7312 299.264 -55.7312Q302.0416 -55.7312 305.7152 -56.0Q309.3888 -56.2688 311.7184 -56.2688ZM320.8576 -41.9328Q320.8576 -46.7712 319.28959999999995 -49.638400000000004Q317.72159999999997 -52.5056 314.8096 -53.8048Q311.8976 -55.104 307.776 -55.104Q304.55039999999997 -55.104 303.1168 -53.9392Q301.6832 -52.7744 301.6832 -48.5632V-29.7472Q302.9376 -29.6576 304.416 -29.567999999999998Q305.8944 -29.4784 307.0592 -29.4784Q314.7648 -29.4784 317.8112 -32.704Q320.8576 -35.9296 320.8576 -41.9328Z M378.73920000000004 -25.7152 379.54560000000004 -27.328H402.752L403.3792 -25.7152ZM423.00160000000005 -1.0752Q423.36 -1.0752 423.36 -0.5376Q423.36 0.0 423.00160000000005 0.0Q420.49280000000005 0.0 417.8496 -0.1792Q415.20640000000003 -0.3584 412.78720000000004 -0.3584Q410.00960000000003 -0.3584 407.9936 -0.1792Q405.97760000000005 0.0 403.5584 0.0Q403.20000000000005 0.0 403.20000000000005 -0.5376Q403.20000000000005 -1.0752 403.5584 -1.0752Q408.576 -1.0752 409.8752 -2.4192Q411.1744 -3.7632 409.47200000000004 -7.5264L389.2224 -51.072L390.9248 -52.5952L373.632 -11.0208Q371.392 -5.5552 373.2736 -3.3152Q375.15520000000004 -1.0752 381.24800000000005 -1.0752Q381.696 -1.0752 381.696 -0.5376Q381.696 0.0 381.24800000000005 0.0Q378.56 0.0 376.32000000000005 -0.1792Q374.08000000000004 -0.3584 370.6752 -0.3584Q367.53920000000005 -0.3584 365.61280000000005 -0.1792Q363.68640000000005 0.0 360.9984 0.0Q360.64000000000004 0.0 360.64000000000004 -0.5376Q360.64000000000004 -1.0752 360.9984 -1.0752Q363.41760000000005 -1.0752 365.2096 -1.9712Q367.0016 -2.8672 368.56960000000004 -5.1968Q370.1376 -7.5264 371.92960000000005 -11.8272L390.656 -56.896Q390.83520000000004 -57.1648 391.23840000000007 -57.1648Q391.64160000000004 -57.1648 391.7312 -56.896L412.51840000000004 -12.2752Q414.5792 -7.7952 416.192 -5.3312Q417.8048 -2.8672 419.4176 -1.9712Q421.03040000000004 -1.0752 423.00160000000005 -1.0752Z" fill="#F7F2E9"/></g><g transform="translate(348.800,280.000)"><path d="M5.04 -12.685714285714287H8.914285714285715Q11.074285714285715 -12.685714285714287 12.668571428571429 -13.302857142857142Q14.262857142857143 -13.92 15.154285714285715 -15.120000000000001Q16.045714285714286 -16.32 16.045714285714286 -18.0Q16.045714285714286 -20.057142857142857 15.154285714285715 -21.377142857142857Q14.262857142857143 -22.697142857142858 12.668571428571429 -23.34857142857143Q11.074285714285715 -24.0 8.914285714285715 -24.0H2.742857142857143V0.0H9.257142857142858Q11.588571428571429 0.0 13.422857142857143 -0.7714285714285715Q15.257142857142858 -1.542857142857143 16.337142857142858 -3.1028571428571428Q17.417142857142856 -4.662857142857143 17.417142857142856 -7.028571428571429Q17.417142857142856 -8.674285714285714 16.8 -9.874285714285715Q16.182857142857145 -11.074285714285715 15.068571428571431 -11.845714285714287Q13.954285714285716 -12.617142857142857 12.48 -12.994285714285715Q11.005714285714287 -13.371428571428572 9.257142857142858 -13.371428571428572H5.04V-11.76H9.257142857142858Q10.422857142857143 -11.76 11.382857142857144 -11.46857142857143Q12.342857142857143 -11.177142857142858 13.045714285714286 -10.594285714285714Q13.748571428571429 -10.011428571428572 14.125714285714286 -9.154285714285715Q14.502857142857144 -8.297142857142857 14.502857142857144 -7.2Q14.502857142857144 -5.725714285714286 13.834285714285716 -4.6971428571428575Q13.165714285714287 -3.6685714285714286 11.982857142857144 -3.12Q10.8 -2.5714285714285716 9.257142857142858 -2.5714285714285716H5.6571428571428575V-21.42857142857143H8.914285714285715Q10.731428571428571 -21.42857142857143 11.931428571428572 -20.485714285714288Q13.131428571428572 -19.542857142857144 13.131428571428572 -17.82857142857143Q13.131428571428572 -16.697142857142858 12.582857142857144 -15.90857142857143Q12.034285714285716 -15.120000000000001 11.074285714285715 -14.708571428571428Q10.114285714285716 -14.297142857142857 8.914285714285715 -14.297142857142857H5.04Z M31.13142857142857 -12.0Q31.13142857142857 -14.70857142857143 32.31428571428572 -16.834285714285716Q33.49714285714286 -18.96 35.55428571428572 -20.194285714285716Q37.611428571428576 -21.42857142857143 40.21714285714286 -21.42857142857143Q42.85714285714286 -21.42857142857143 44.89714285714286 -20.194285714285716Q46.93714285714286 -18.96 48.120000000000005 -16.834285714285716Q49.30285714285715 -14.70857142857143 49.30285714285715 -12.0Q49.30285714285715 -9.291428571428572 48.120000000000005 -7.1657142857142855Q46.93714285714286 -5.04 44.89714285714286 -3.805714285714286Q42.85714285714286 -2.5714285714285716 40.21714285714286 -2.5714285714285716Q37.611428571428576 -2.5714285714285716 35.55428571428572 -3.805714285714286Q33.49714285714286 -5.04 32.31428571428572 -7.1657142857142855Q31.13142857142857 -9.291428571428572 31.13142857142857 -12.0ZM28.045714285714286 -12.0Q28.045714285714286 -9.394285714285715 28.954285714285717 -7.131428571428572Q29.862857142857145 -4.868571428571429 31.508571428571432 -3.205714285714286Q33.15428571428572 -1.542857142857143 35.38285714285715 -0.6000000000000001Q37.611428571428576 0.34285714285714286 40.21714285714286 0.34285714285714286Q42.85714285714286 0.34285714285714286 45.06857142857143 -0.6000000000000001Q47.28 -1.542857142857143 48.925714285714285 -3.205714285714286Q50.57142857142857 -4.868571428571429 51.480000000000004 -7.131428571428572Q52.38857142857143 -9.394285714285715 52.38857142857143 -12.0Q52.38857142857143 -14.64 51.480000000000004 -16.885714285714286Q50.57142857142857 -19.13142857142857 48.925714285714285 -20.794285714285714Q47.28 -22.45714285714286 45.06857142857143 -23.400000000000002Q42.85714285714286 -24.342857142857145 40.21714285714286 -24.342857142857145Q37.611428571428576 -24.342857142857145 35.38285714285715 -23.400000000000002Q33.15428571428572 -22.45714285714286 31.508571428571432 -20.794285714285714Q29.862857142857145 -19.13142857142857 28.954285714285717 -16.885714285714286Q28.045714285714286 -14.64 28.045714285714286 -12.0Z M68.33142857142857 -11.82857142857143 76.56 0.0H80.16L71.58857142857143 -11.82857142857143ZM64.04571428571428 -24.0V0.0H66.96V-24.0ZM65.65714285714286 -21.42857142857143H70.56Q72.10285714285715 -21.42857142857143 73.28571428571429 -20.880000000000003Q74.46857142857144 -20.33142857142857 75.13714285714286 -19.302857142857142Q75.80571428571429 -18.274285714285714 75.80571428571429 -16.8Q75.80571428571429 -15.325714285714286 75.13714285714286 -14.297142857142857Q74.46857142857144 -13.268571428571429 73.28571428571429 -12.72Q72.10285714285715 -12.171428571428573 70.56 -12.171428571428573H65.65714285714286V-9.6H70.56Q72.89142857142858 -9.6 74.72571428571429 -10.474285714285713Q76.56 -11.348571428571429 77.64 -12.977142857142859Q78.72 -14.605714285714287 78.72 -16.8Q78.72 -19.02857142857143 77.64 -20.64Q76.56 -22.251428571428573 74.72571428571429 -23.125714285714288Q72.89142857142858 -24.0 70.56 -24.0H65.65714285714286Z M108.96 -24.0V-6.137142857142857L90.78857142857143 -25.200000000000003V0.0H93.70285714285714V-17.862857142857145L111.87428571428572 1.2V-24.0Z M142.73142857142855 -24.0V0.0H145.64571428571426V-24.0Z M176.84571428571428 -24.0V-6.137142857142857L158.6742857142857 -25.200000000000003V0.0H161.5885714285714V-17.862857142857145L179.76 1.2V-24.0Z M212.2285714285714 -21.25714285714286H222.95999999999998V-24.0H212.2285714285714ZM212.2285714285714 -11.657142857142858H222.61714285714282V-14.4H212.2285714285714ZM210.61714285714282 -24.0V0.0H213.53142857142853V-24.0Z M235.3028571428571 -24.0V0.0H238.21714285714282V-24.0Z M255.53142857142856 -11.82857142857143 263.76 0.0H267.35999999999996L258.7885714285714 -11.82857142857143ZM251.24571428571426 -24.0V0.0H254.15999999999997V-24.0ZM252.85714285714283 -21.42857142857143H257.76Q259.30285714285714 -21.42857142857143 260.48571428571427 -20.880000000000003Q261.6685714285714 -20.33142857142857 262.3371428571428 -19.302857142857142Q263.00571428571425 -18.274285714285714 263.00571428571425 -16.8Q263.00571428571425 -15.325714285714286 262.3371428571428 -14.297142857142857Q261.6685714285714 -13.268571428571429 260.48571428571427 -12.72Q259.30285714285714 -12.171428571428573 257.76 -12.171428571428573H252.85714285714283V-9.6H257.76Q260.09142857142854 -9.6 261.92571428571426 -10.474285714285713Q263.76 -11.348571428571429 264.84 -12.977142857142859Q265.91999999999996 -14.605714285714287 265.91999999999996 -16.8Q265.91999999999996 -19.02857142857143 264.84 -20.64Q263.76 -22.251428571428573 261.92571428571426 -23.125714285714288Q260.09142857142854 -24.0 257.76 -24.0H252.85714285714283Z M279.59999999999997 0.0H291.7028571428571V-2.742857142857143H279.59999999999997ZM279.59999999999997 -21.25714285714286H291.7028571428571V-24.0H279.59999999999997ZM279.59999999999997 -11.657142857142858H291.01714285714286V-14.4H279.59999999999997ZM277.9885714285714 -24.0V0.0H280.9028571428571V-24.0Z" fill="#C79A4B"/></g></svg>