<svg xmlns="http://www.w3.org/2000/svg" width="100mm" height="150mm" viewBox="0 0 100 150"><rect width="100" height="150" fill="#F7F2E9"/><rect x="0" y="0" width="100" height="28" fill="#7C1226"/><g transform="translate(5.760,6.440) scale(0.14000)"><path d="M49.36 17.31 L47.99 17.67 L46.63 18.08 L45.29 18.53 L43.96 19.03 L42.65 19.56 L41.36 20.14 L40.09 20.76 L38.83 21.43 L37.60 22.13 L36.39 22.87 L35.21 23.65 L34.05 24.46 L32.92 25.32 L31.82 26.21 L30.75 27.13 L29.71 28.09 L28.69 29.08 L27.72 30.10 L26.77 31.16 L25.86 32.24 L24.98 33.36 L24.14 34.50 L23.34 35.66 L22.58 36.86 L21.85 38.07 L21.17 39.31 L20.52 40.57 L19.92 41.85 L19.35 43.15 L18.83 44.47 L18.35 45.80 L17.92 47.15 L17.53 48.51 L17.18 49.89 L16.87 51.27 L16.62 52.66 L16.40 54.06 L16.23 55.47 L16.11 56.88 L16.03 58.29 L16.00 59.71 L16.01 61.13 L16.07 62.54 L16.18 63.95 L16.33 65.36 L16.52 66.77 L16.76 68.16 L17.05 69.55 L17.38 70.93 L17.75 72.29 L18.17 73.65 L18.63 74.98 L19.13 76.31 L19.68 77.62 L20.27 78.90 L20.90 80.17 L21.57 81.42 L22.28 82.65 L23.02 83.85 L23.81 85.03 L24.64 86.18 L25.50 87.30 L26.39 88.40 L27.32 89.47 L28.29 90.50 L29.29 91.51 L30.32 92.48 L31.38 93.42 L32.47 94.32 L33.59 95.19 L34.73 96.02 L35.91 96.82 L37.10 97.57 L38.33 98.29 L39.57 98.97 L40.83 99.61 L42.12 100.20 L43.42 100.76 L44.74 101.27 L46.08 101.74 L47.43 102.17 L48.79 102.55 L50.17 102.89 L51.55 103.18 L52.95 103.43 L54.35 103.64 L55.76 103.79 L57.17 103.91 L58.58 103.98 L60.00 104.00 L61.42 103.98 L62.83 103.91 L64.24 103.79 L65.65 103.64 L67.05 103.43 L68.45 103.18 L69.83 102.89 L71.21 102.55 L72.57 102.17 L73.92 101.74 L75.26 101.27 L76.58 100.76 L77.88 100.20 L79.17 99.61 L80.43 98.97 L81.67 98.29 L82.90 97.57 L84.09 96.82 L85.27 96.02 L86.41 95.19 L87.53 94.32 L88.62 93.42 L89.68 92.48 L90.71 91.51 L91.71 90.50 L92.68 89.47 L93.61 88.40 L94.50 87.30 L95.36 86.18 L96.19 85.03 L96.98 83.85 L97.72 82.65 L98.43 81.42 L99.10 80.17 L99.73 78.90 L100.32 77.62 L100.87 76.31 L101.37 74.98 L101.83 73.65 L102.25 72.29 L102.62 70.93 L102.95 69.55 L103.24 68.16 L103.48 66.77 L103.67 65.36 L103.82 63.95 L103.93 62.54 L103.99 61.13 L104.00 59.71 L103.97 58.29 L103.89 56.88 L103.77 55.47 L103.60 54.06 L103.38 52.66 L103.13 51.27 L102.82 49.89 L102.47 48.51 L102.08 47.15 L101.65 45.80 L101.17 44.47 L100.65 43.15 L100.08 41.85 L99.48 40.57 L98.83 39.31 L98.15 38.07 L97.42 36.86 L96.66 35.66 L95.86 34.50 L95.02 33.36 L94.14 32.24 L93.23 31.16 L92.28 30.10 L91.31 29.08 L90.29 28.09 L89.25 27.13 L88.18 26.21 L87.08 25.32 L85.95 24.46 L84.79 23.65 L83.61 22.87 L82.40 22.13 L81.17 21.43 L79.91 20.76 L78.64 20.14 L77.35 19.56 L76.04 19.03 L74.71 18.53 L73.37 18.08 L72.01 17.67 L70.64 17.31 L70.52 17.79 L71.85 18.24 L73.16 18.73 L74.46 19.26 L75.73 19.82 L76.98 20.43 L78.20 21.08 L79.41 21.76 L80.59 22.49 L81.74 23.24 L82.86 24.04 L83.96 24.86 L85.03 25.72 L86.06 26.62 L87.07 27.54 L88.04 28.49 L88.98 29.47 L89.89 30.48 L90.76 31.52 L91.60 32.58 L92.40 33.66 L93.16 34.77 L93.89 35.89 L94.58 37.04 L95.23 38.21 L95.85 39.40 L96.42 40.60 L96.95 41.82 L97.45 43.05 L97.90 44.29 L98.31 45.55 L98.69 46.81 L99.02 48.09 L99.31 49.37 L99.56 50.66 L99.77 51.95 L99.94 53.25 L100.06 54.54 L100.15 55.84 L100.19 57.14 L100.19 58.44 L100.15 59.74 L100.07 61.03 L99.95 62.31 L99.80 63.59 L99.60 64.86 L99.36 66.12 L99.08 67.38 L98.76 68.62 L98.41 69.85 L98.02 71.06 L97.59 72.26 L97.12 73.45 L96.62 74.61 L96.08 75.76 L95.51 76.89 L94.90 78.01 L94.26 79.10 L93.59 80.16 L92.88 81.21 L92.15 82.23 L91.38 83.23 L90.58 84.20 L89.75 85.14 L88.90 86.06 L88.02 86.95 L87.11 87.81 L86.18 88.65 L85.22 89.45 L84.24 90.22 L83.23 90.96 L82.21 91.67 L81.16 92.34 L80.10 92.98 L79.01 93.59 L77.91 94.16 L76.79 94.70 L75.66 95.21 L74.51 95.67 L73.35 96.11 L72.17 96.50 L70.99 96.86 L69.79 97.18 L68.59 97.47 L67.38 97.71 L66.16 97.92 L64.93 98.09 L63.70 98.23 L62.47 98.32 L61.24 98.38 L60.00 98.40 L58.76 98.38 L57.53 98.32 L56.30 98.23 L55.07 98.09 L53.84 97.92 L52.62 97.71 L51.41 97.47 L50.21 97.18 L49.01 96.86 L47.83 96.50 L46.65 96.11 L45.49 95.67 L44.34 95.21 L43.21 94.70 L42.09 94.16 L40.99 93.59 L39.90 92.98 L38.84 92.34 L37.79 91.67 L36.77 90.96 L35.76 90.22 L34.78 89.45 L33.82 88.65 L32.89 87.81 L31.98 86.95 L31.10 86.06 L30.25 85.14 L29.42 84.20 L28.62 83.23 L27.85 82.23 L27.12 81.21 L26.41 80.16 L25.74 79.10 L25.10 78.01 L24.49 76.89 L23.92 75.76 L23.38 74.61 L22.88 73.45 L22.41 72.26 L21.98 71.06 L21.59 69.85 L21.24 68.62 L20.92 67.38 L20.64 66.12 L20.40 64.86 L20.20 63.59 L20.05 62.31 L19.93 61.03 L19.85 59.74 L19.81 58.44 L19.81 57.14 L19.85 55.84 L19.94 54.54 L20.06 53.25 L20.23 51.95 L20.44 50.66 L20.69 49.37 L20.98 48.09 L21.31 46.81 L21.69 45.55 L22.10 44.29 L22.55 43.05 L23.05 41.82 L23.58 40.60 L24.15 39.40 L24.77 38.21 L25.42 37.04 L26.11 35.89 L26.84 34.77 L27.60 33.66 L28.40 32.58 L29.24 31.52 L30.11 30.48 L31.02 29.47 L31.96 28.49 L32.93 27.54 L33.94 26.62 L34.97 25.72 L36.04 24.86 L37.14 24.04 L38.26 23.24 L39.41 22.49 L40.59 21.76 L41.80 21.08 L43.02 20.43 L44.27 19.82 L45.54 19.26 L46.84 18.73 L48.15 18.24 L49.48 17.79 Z" fill="#F7F2E9"/><path d="M60 4.0 L78.44 41.88 L41.56 41.88 Z" fill="#F7F2E9"/><path d="M41.55 42.12 L78.45 42.12 L60 90.0 Z" fill="#F7F2E9"/></g><g transform="translate(24.320,15.300)"><path d="M1.9011200000000001 0.0H0.18304000000000004Q0.17472000000000001 0.0 0.17472000000000001 -0.024960000000000003Q0.17472000000000001 -0.049920000000000006 0.18304000000000004 -0.049920000000000006Q0.34112000000000003 -0.049920000000000006 0.4201600000000001 -0.07072Q0.4992000000000001 -0.09152000000000002 0.52624 -0.15392Q0.5532800000000001 -0.21632 0.5532800000000001 -0.33696000000000004V-2.26304Q0.5532800000000001 -2.3836800000000005 0.52624 -2.4440000000000004Q0.4992000000000001 -2.5043200000000003 0.4201600000000001 -2.5272000000000006Q0.34112000000000003 -2.5500800000000003 0.18304000000000004 -2.5500800000000003Q0.17472000000000001 -2.5500800000000003 0.17472000000000001 -2.5750400000000004Q0.17472000000000001 -2.6000000000000005 0.18304000000000004 -2.6000000000000005H1.8304000000000002Q1.8678400000000002 -2.6000000000000005 1.8678400000000002 -2.5625600000000004L1.8761600000000003 -2.0592Q1.8761600000000003 -2.04672 1.8532800000000003 -2.04672Q1.8304000000000002 -2.04672 1.8304000000000002 -2.0592Q1.8304000000000002 -2.27552 1.7180800000000003 -2.3982400000000004Q1.6057600000000003 -2.52096 1.4227200000000002 -2.52096H1.1356800000000002Q0.9817600000000001 -2.52096 0.9048 -2.50016Q0.8278400000000001 -2.4793600000000002 0.8008000000000002 -2.4190400000000003Q0.7737600000000001 -2.3587200000000004 0.7737600000000001 -2.23808V-0.3536Q0.7737600000000001 -0.23712000000000003 0.8008000000000002 -0.17888Q0.8278400000000001 -0.12064000000000001 0.9048 -0.09984000000000001Q0.9817600000000001 -0.07904000000000001 1.1356800000000002 -0.07904000000000001H1.5184000000000002Q1.6848000000000003 -0.07904000000000001 1.8054400000000004 -0.22464000000000003Q1.9260800000000002 -0.37024000000000007 1.9552000000000003 -0.6073600000000001Q1.9552000000000003 -0.6198400000000001 1.9801600000000001 -0.6177600000000001Q2.0051200000000002 -0.6156800000000001 2.0051200000000002 -0.6032000000000001Q1.9884800000000002 -0.49504000000000004 1.9780800000000003 -0.34320000000000006Q1.9676800000000003 -0.19136000000000003 1.9676800000000003 -0.06240000000000001Q1.9676800000000003 0.0 1.9011200000000001 0.0ZM1.6681600000000003 -0.9776000000000001Q1.6681600000000003 -1.1648 1.5891200000000003 -1.2396800000000001Q1.51008 -1.3145600000000002 1.3104000000000002 -1.3145600000000002H0.6697600000000001V-1.3936000000000002H1.32288Q1.5142400000000003 -1.3936000000000002 1.5891200000000003 -1.4580800000000003Q1.6640000000000001 -1.5225600000000001 1.6640000000000001 -1.6806400000000001Q1.6640000000000001 -1.6889600000000002 1.6889600000000002 -1.6889600000000002Q1.71392 -1.6889600000000002 1.71392 -1.6806400000000001Q1.71392 -1.5600000000000003 1.71184 -1.49344Q1.7097600000000002 -1.4268800000000001 1.7097600000000002 -1.352Q1.7097600000000002 -1.26048 1.7139200000000003 -1.17104Q1.7180800000000003 -1.0816000000000001 1.7180800000000003 -0.9776000000000001Q1.7180800000000003 -0.9692800000000001 1.6931200000000004 -0.9692800000000001Q1.6681600000000003 -0.9692800000000001 1.6681600000000003 -0.9776000000000001Z M3.4652800000000004 -0.43264 3.50688 -2.5043200000000003 3.5984000000000003 -2.4960000000000004 3.5609600000000006 -0.43264Q3.5568000000000004 -0.22048000000000004 3.6296000000000004 -0.13520000000000001Q3.7024000000000004 -0.049920000000000006 3.9104000000000005 -0.049920000000000006Q3.9187200000000004 -0.049920000000000006 3.9187200000000004 -0.024960000000000003Q3.9187200000000004 0.0 3.9104000000000005 0.0Q3.8188800000000005 0.0 3.7211200000000004 -0.0041600000000000005Q3.6233600000000004 -0.008320000000000001 3.50688 -0.008320000000000001Q3.4070400000000003 -0.008320000000000001 3.3155200000000002 -0.0041600000000000005Q3.224 0.0 3.1408000000000005 0.0Q3.13248 0.0 3.13248 -0.024960000000000003Q3.13248 -0.049920000000000006 3.1408000000000005 -0.049920000000000006Q3.3155200000000002 -0.049920000000000006 3.38832 -0.13520000000000001Q3.46112 -0.22048000000000004 3.4652800000000004 -0.43264ZM6.323200000000001 -0.049920000000000006Q6.335680000000001 -0.049920000000000006 6.335680000000001 -0.024960000000000003Q6.335680000000001 0.0 6.323200000000001 0.0Q6.2233600000000004 0.0 6.10064 -0.0041600000000000005Q5.977920000000001 -0.008320000000000001 5.8406400000000005 -0.008320000000000001Q5.711680000000001 -0.008320000000000001 5.603520000000001 -0.0041600000000000005Q5.495360000000001 0.0 5.408 0.0Q5.39968 0.0 5.39968 -0.024960000000000003Q5.39968 -0.049920000000000006 5.408 -0.049920000000000006Q5.6160000000000005 -0.049920000000000006 5.6763200000000005 -0.10400000000000001Q5.73664 -0.15808000000000003 5.72832 -0.33696000000000004L5.653440000000001 -2.38784L5.7740800000000005 -2.5417600000000005L4.68416 -0.029120000000000004Q4.680000000000001 -0.012480000000000002 4.650880000000001 -0.012480000000000002Q4.62176 -0.012480000000000002 4.613440000000001 -0.029120000000000004L3.5984000000000003 -2.2547200000000003Q3.4652800000000004 -2.5500800000000003 3.1699200000000003 -2.5500800000000003Q3.1616000000000004 -2.5500800000000003 3.1616000000000004 -2.5750400000000004Q3.1616000000000004 -2.6000000000000005 3.1699200000000003 -2.6000000000000005Q3.2323200000000005 -2.6000000000000005 3.30304 -2.5958400000000004Q3.3737600000000003 -2.59168 3.4195200000000003 -2.59168Q3.4777600000000004 -2.59168 3.52768 -2.5958400000000004Q3.5776000000000003 -2.6000000000000005 3.6025600000000004 -2.6000000000000005Q3.6608000000000005 -2.6000000000000005 3.6940800000000005 -2.5625600000000004Q3.7273600000000005 -2.5251200000000003 3.7939200000000004 -2.3836800000000005L4.746560000000001 -0.32448000000000005L4.638400000000001 -0.14976L5.661760000000001 -2.4960000000000004Q5.6825600000000005 -2.5417600000000005 5.71792 -2.5708800000000007Q5.75328 -2.6000000000000005 5.786560000000001 -2.6000000000000005Q5.807360000000001 -2.6000000000000005 5.848960000000001 -2.5958400000000004Q5.890560000000001 -2.59168 5.944640000000001 -2.59168Q6.052800000000001 -2.59168 6.119360000000001 -2.5958400000000004Q6.185920000000001 -2.6000000000000005 6.260800000000001 -2.6000000000000005Q6.269120000000001 -2.6000000000000005 6.269120000000001 -2.5750400000000004Q6.269120000000001 -2.5500800000000003 6.260800000000001 -2.5500800000000003Q6.05696 -2.5500800000000003 5.96128 -2.4980800000000003Q5.865600000000001 -2.4460800000000003 5.869760000000001 -2.2713600000000005L5.9488 -0.33696000000000004Q5.952960000000001 -0.21632 5.98 -0.15392Q6.007040000000001 -0.09152000000000002 6.086080000000001 -0.07072Q6.165120000000001 -0.049920000000000006 6.323200000000001 -0.049920000000000006Z M7.941440000000001 -0.3536Q7.941440000000001 -0.22880000000000003 7.976800000000001 -0.16432000000000002Q8.012160000000002 -0.09984000000000001 8.124480000000002 -0.07488Q8.2368 -0.049920000000000006 8.461440000000001 -0.049920000000000006Q8.473920000000001 -0.049920000000000006 8.473920000000001 -0.024960000000000003Q8.473920000000001 0.0 8.461440000000001 0.0Q8.328320000000001 0.0 8.172320000000001 -0.0041600000000000005Q8.01632 -0.008320000000000001 7.833280000000001 -0.008320000000000001Q7.70016 -0.008320000000000001 7.575360000000001 -0.0041600000000000005Q7.450560000000001 0.0 7.350720000000001 0.0Q7.3424000000000005 0.0 7.3424000000000005 -0.024960000000000003Q7.3424000000000005 -0.049920000000000006 7.350720000000001 -0.049920000000000006Q7.508800000000001 -0.049920000000000006 7.587840000000001 -0.07072Q7.666880000000001 -0.09152000000000002 7.69392 -0.15392Q7.720960000000001 -0.21632 7.720960000000001 -0.33696000000000004V-2.26304Q7.720960000000001 -2.3836800000000005 7.69392 -2.4440000000000004Q7.666880000000001 -2.5043200000000003 7.587840000000001 -2.5272000000000006Q7.508800000000001 -2.5500800000000003 7.350720000000001 -2.5500800000000003Q7.3424000000000005 -2.5500800000000003 7.3424000000000005 -2.5750400000000004Q7.3424000000000005 -2.6000000000000005 7.350720000000001 -2.6000000000000005Q7.450560000000001 -2.6000000000000005 7.5732800000000005 -2.5937600000000005Q7.696000000000001 -2.5875200000000005 7.8291200000000005 -2.5875200000000005Q7.937280000000001 -2.5875200000000005 8.0912 -2.6000000000000005Q8.24512 -2.61248 8.411520000000001 -2.61248Q8.640320000000001 -2.61248 8.82752 -2.54176Q9.01472 -2.4710400000000003 9.124960000000002 -2.3212800000000002Q9.2352 -2.17152 9.2352 -1.9302400000000002Q9.2352 -1.7097600000000002 9.152000000000001 -1.5516800000000002Q9.068800000000001 -1.3936000000000002 8.933600000000002 -1.2916800000000002Q8.7984 -1.1897600000000002 8.63616 -1.1398400000000002Q8.473920000000001 -1.0899200000000002 8.315840000000001 -1.0899200000000002Q8.26176 -1.0899200000000002 8.209760000000001 -1.0940800000000002Q8.157760000000001 -1.09824 8.112 -1.1107200000000002Q8.095360000000001 -1.11488 8.101600000000001 -1.1419200000000003Q8.107840000000001 -1.1689600000000002 8.120320000000001 -1.1648Q8.157760000000001 -1.1564800000000002 8.197280000000001 -1.15232Q8.2368 -1.14816 8.27008 -1.14816Q8.45312 -1.14816 8.61536 -1.2230400000000001Q8.777600000000001 -1.2979200000000002 8.87744 -1.45392Q8.97728 -1.6099200000000002 8.97728 -1.8470400000000002Q8.97728 -2.0758400000000004 8.88784 -2.2339200000000003Q8.7984 -2.3920000000000003 8.64864 -2.4752Q8.498880000000002 -2.5584000000000002 8.315840000000001 -2.5584000000000002Q8.166080000000001 -2.5584000000000002 8.08496 -2.5438400000000003Q8.00384 -2.5292800000000004 7.97264 -2.4668800000000006Q7.941440000000001 -2.4044800000000004 7.941440000000001 -2.2547200000000003Z M11.273600000000002 -1.2064000000000001 11.92256 -2.1881600000000003Q12.03904 -2.3712000000000004 12.00576 -2.4606400000000006Q11.972480000000001 -2.5500800000000003 11.78944 -2.5500800000000003Q11.781120000000001 -2.5500800000000003 11.781120000000001 -2.5750400000000004Q11.781120000000001 -2.6000000000000005 11.78944 -2.6000000000000005Q11.8976 -2.6000000000000005 11.997440000000001 -2.5937600000000005Q12.097280000000001 -2.5875200000000005 12.255360000000001 -2.5875200000000005Q12.35936 -2.5875200000000005 12.423840000000002 -2.5937600000000005Q12.488320000000002 -2.6000000000000005 12.57984 -2.6000000000000005Q12.588160000000002 -2.6000000000000005 12.588160000000002 -2.5750400000000004Q12.588160000000002 -2.5500800000000003 12.57984 -2.5500800000000003Q12.475840000000002 -2.5500800000000003 12.376000000000001 -2.5064Q12.27616 -2.4627200000000005 12.186720000000001 -2.3795200000000003Q12.097280000000001 -2.29632 12.01824 -2.1756800000000003L11.340160000000001 -1.14816ZM11.27776 -1.1273600000000001 10.49984 -2.2547200000000003Q10.391680000000001 -2.4169600000000004 10.287680000000002 -2.4835200000000004Q10.18368 -2.5500800000000003 10.029760000000001 -2.5500800000000003Q10.017280000000001 -2.5500800000000003 10.017280000000001 -2.5750400000000004Q10.017280000000001 -2.6000000000000005 10.029760000000001 -2.6000000000000005Q10.100480000000001 -2.6000000000000005 10.181600000000001 -2.5937600000000005Q10.262720000000002 -2.5875200000000005 10.333440000000001 -2.5875200000000005Q10.44576 -2.5875200000000005 10.543520000000001 -2.5896000000000003Q10.64128 -2.59168 10.72864 -2.5958400000000004Q10.816 -2.6000000000000005 10.88672 -2.6000000000000005Q10.895040000000002 -2.6000000000000005 10.895040000000002 -2.5750400000000004Q10.895040000000002 -2.5500800000000003 10.88672 -2.5500800000000003Q10.71616 -2.5500800000000003 10.6704 -2.51264Q10.624640000000001 -2.4752000000000005 10.6912 -2.3836800000000005L11.43168 -1.3187200000000001ZM11.211200000000002 -1.2896 11.43168 -1.3270400000000002V-0.33696000000000004Q11.43168 -0.21632 11.45664 -0.15392Q11.4816 -0.09152000000000002 11.56064 -0.07072Q11.63968 -0.049920000000000006 11.79776 -0.049920000000000006Q11.81024 -0.049920000000000006 11.81024 -0.024960000000000003Q11.81024 0.0 11.79776 0.0Q11.70208 0.0 11.58144 -0.0041600000000000005Q11.4608 -0.008320000000000001 11.319360000000001 -0.008320000000000001Q11.182080000000001 -0.008320000000000001 11.057280000000002 -0.0041600000000000005Q10.932480000000002 0.0 10.8368 0.0Q10.82432 0.0 10.82432 -0.024960000000000003Q10.82432 -0.049920000000000006 10.8368 -0.049920000000000006Q10.99488 -0.049920000000000006 11.076 -0.07072Q11.15712 -0.09152000000000002 11.184160000000002 -0.15392Q11.211200000000002 -0.21632 11.211200000000002 -0.33696000000000004Z M15.558400000000002 0.0Q15.487680000000001 0.0 15.32544 -0.16224000000000002Q15.163200000000002 -0.32448000000000005 14.934400000000002 -0.6260800000000001Q14.705600000000002 -0.9276800000000001 14.422720000000002 -1.3395200000000003L14.622400000000003 -1.4019200000000003Q14.980160000000001 -0.8985600000000001 15.229760000000002 -0.6011200000000001Q15.479360000000002 -0.30368000000000006 15.670720000000003 -0.17680000000000004Q15.862080000000002 -0.049920000000000006 16.040960000000002 -0.049920000000000006Q16.053440000000002 -0.049920000000000006 16.053440000000002 -0.024960000000000003Q16.053440000000002 0.0 16.040960000000002 0.0Q15.853760000000001 0.0 15.735200000000003 0.0Q15.616640000000002 0.0 15.558400000000002 0.0ZM14.472640000000002 -2.61248Q14.79296 -2.61248 14.961440000000001 -2.4585600000000003Q15.129920000000002 -2.3046400000000005 15.129920000000002 -2.0592Q15.129920000000002 -1.8387200000000001 15.000960000000003 -1.6598400000000002Q14.872000000000002 -1.4809600000000003 14.657760000000001 -1.3769600000000002Q14.443520000000001 -1.27296 14.1856 -1.27296Q14.14816 -1.27296 14.09824 -1.27712Q14.048320000000002 -1.2812800000000002 14.006720000000001 -1.2854400000000001V-0.33696000000000004Q14.006720000000001 -0.21632 14.031680000000001 -0.15392Q14.056640000000002 -0.09152000000000002 14.137760000000002 -0.07072Q14.218880000000002 -0.049920000000000006 14.376960000000002 -0.049920000000000006Q14.389440000000002 -0.049920000000000006 14.389440000000002 -0.024960000000000003Q14.389440000000002 0.0 14.376960000000002 0.0Q14.277120000000002 0.0 14.158560000000001 -0.0041600000000000005Q14.040000000000001 -0.008320000000000001 13.894400000000001 -0.008320000000000001Q13.761280000000001 -0.008320000000000001 13.636480000000002 -0.0041600000000000005Q13.511680000000002 0.0 13.411840000000002 0.0Q13.403520000000002 0.0 13.403520000000002 -0.024960000000000003Q13.403520000000002 -0.049920000000000006 13.411840000000002 -0.049920000000000006Q13.569920000000002 -0.049920000000000006 13.651040000000002 -0.07072Q13.732160000000002 -0.09152000000000002 13.761280000000003 -0.15392Q13.790400000000002 -0.21632 13.790400000000002 -0.33696000000000004V-2.26304Q13.790400000000002 -2.3836800000000005 13.763360000000002 -2.4440000000000004Q13.736320000000001 -2.5043200000000003 13.65728 -2.5272000000000006Q13.578240000000001 -2.5500800000000003 13.420160000000001 -2.5500800000000003Q13.407680000000001 -2.5500800000000003 13.407680000000001 -2.5750400000000004Q13.407680000000001 -2.6000000000000005 13.420160000000001 -2.6000000000000005Q13.51584 -2.6000000000000005 13.638560000000002 -2.5937600000000005Q13.761280000000001 -2.5875200000000005 13.894400000000001 -2.5875200000000005Q14.023360000000002 -2.5875200000000005 14.193920000000002 -2.6000000000000005Q14.364480000000002 -2.61248 14.472640000000002 -2.61248ZM14.896960000000002 -1.9468800000000002Q14.896960000000002 -2.17152 14.824160000000003 -2.30464Q14.751360000000002 -2.4377600000000004 14.61616 -2.4980800000000003Q14.480960000000001 -2.5584000000000002 14.289600000000002 -2.5584000000000002Q14.139840000000001 -2.5584000000000002 14.07328 -2.5043200000000003Q14.006720000000001 -2.4502400000000004 14.006720000000001 -2.2547200000000003V-1.3811200000000001Q14.064960000000001 -1.3769600000000002 14.133600000000001 -1.3728000000000002Q14.202240000000002 -1.36864 14.256320000000002 -1.36864Q14.614080000000001 -1.36864 14.75552 -1.5184000000000002Q14.896960000000002 -1.6681600000000003 14.896960000000002 -1.9468800000000002Z M17.58432 -1.19392 17.621760000000002 -1.2688000000000001H18.6992L18.72832 -1.19392ZM19.63936 -0.049920000000000006Q19.656000000000002 -0.049920000000000006 19.656000000000002 -0.024960000000000003Q19.656000000000002 0.0 19.63936 0.0Q19.52288 0.0 19.40016 -0.008320000000000001Q19.277440000000002 -0.016640000000000002 19.16512 -0.016640000000000002Q19.036160000000002 -0.016640000000000002 18.94256 -0.008320000000000001Q18.84896 0.0 18.73664 0.0Q18.720000000000002 0.0 18.720000000000002 -0.024960000000000003Q18.720000000000002 -0.049920000000000006 18.73664 -0.049920000000000006Q18.9696 -0.049920000000000006 19.02992 -0.11232Q19.09024 -0.17472000000000001 19.011200000000002 -0.34944000000000003L18.07104 -2.3712000000000004L18.150080000000003 -2.44192L17.3472 -0.51168Q17.2432 -0.25792000000000004 17.330560000000002 -0.15392000000000003Q17.417920000000002 -0.049920000000000006 17.7008 -0.049920000000000006Q17.721600000000002 -0.049920000000000006 17.721600000000002 -0.024960000000000003Q17.721600000000002 0.0 17.7008 0.0Q17.576 0.0 17.472 -0.008320000000000001Q17.368000000000002 -0.016640000000000002 17.20992 -0.016640000000000002Q17.064320000000002 -0.016640000000000002 16.974880000000002 -0.008320000000000001Q16.885440000000003 0.0 16.760640000000002 0.0Q16.744 0.0 16.744 -0.024960000000000003Q16.744 -0.049920000000000006 16.760640000000002 -0.049920000000000006Q16.872960000000003 -0.049920000000000006 16.956160000000004 -0.09152000000000002Q17.039360000000002 -0.13312000000000002 17.112160000000003 -0.24128000000000002Q17.18496 -0.34944000000000003 17.26816 -0.54912L18.137600000000003 -2.6416000000000004Q18.14592 -2.6540800000000004 18.16464 -2.6540800000000004Q18.18336 -2.6540800000000004 18.187520000000003 -2.6416000000000004L19.15264 -0.5699200000000001Q19.24832 -0.36192 19.3232 -0.24752000000000002Q19.39808 -0.13312000000000002 19.47296 -0.09152000000000002Q19.54784 -0.049920000000000006 19.63936 -0.049920000000000006Z" fill="#F7F2E9"/></g><g transform="translate(81.347,16.000)"><path d="M0.4337142857142858 0.017142857142857144Q0.5605714285714286 0.017142857142857144 0.654 -0.03342857142857143Q0.7474285714285714 -0.084 0.8091428571428572 -0.18342857142857144L0.6977142857142857 -0.2537142857142857Q0.6548571428571429 -0.18171428571428572 0.5931428571428572 -0.14657142857142857Q0.5314285714285715 -0.11142857142857143 0.4508571428571429 -0.11142857142857143Q0.37028571428571433 -0.11142857142857143 0.3137142857142857 -0.14571428571428574Q0.2571428571428572 -0.18000000000000002 0.22800000000000004 -0.24514285714285716Q0.19885714285714287 -0.31028571428571433 0.19885714285714287 -0.4028571428571429Q0.2005714285714286 -0.49371428571428577 0.2305714285714286 -0.5562857142857143Q0.26057142857142856 -0.6188571428571429 0.3162857142857143 -0.6522857142857144Q0.37200000000000005 -0.6857142857142857 0.4508571428571429 -0.6857142857142857Q0.5177142857142858 -0.6857142857142857 0.5674285714285715 -0.6565714285714286Q0.6171428571428572 -0.6274285714285714 0.6454285714285715 -0.5760000000000001Q0.6737142857142857 -0.5245714285714286 0.6737142857142857 -0.4542857142857143Q0.6737142857142857 -0.44228571428571434 0.6685714285714286 -0.4242857142857143Q0.6634285714285715 -0.4062857142857143 0.6582857142857144 -0.39771428571428574L0.7131428571428572 -0.4765714285714286H0.14742857142857144V-0.36000000000000004H0.8211428571428572Q0.8211428571428572 -0.36342857142857143 0.8220000000000001 -0.37628571428571433Q0.822857142857143 -0.3891428571428572 0.822857142857143 -0.4011428571428572Q0.822857142857143 -0.5262857142857144 0.7782857142857144 -0.6171428571428572Q0.7337142857142858 -0.7080000000000001 0.6505714285714286 -0.7568571428571429Q0.5674285714285715 -0.8057142857142858 0.4508571428571429 -0.8057142857142858Q0.3342857142857143 -0.8057142857142858 0.246 -0.7542857142857144Q0.15771428571428572 -0.702857142857143 0.10885714285714286 -0.6102857142857143Q0.060000000000000005 -0.5177142857142858 0.060000000000000005 -0.3942857142857143Q0.060000000000000005 -0.2725714285714286 0.10714285714285715 -0.18Q0.1542857142857143 -0.08742857142857144 0.23914285714285716 -0.03514285714285715Q0.324 0.017142857142857144 0.4337142857142858 0.017142857142857144Z M2.468571428571429 -0.49714285714285716Q2.468571428571429 -0.5948571428571429 2.4385714285714286 -0.6642857142857144Q2.4085714285714284 -0.7337142857142858 2.352 -0.7697142857142858Q2.2954285714285714 -0.8057142857142858 2.214857142857143 -0.8057142857142858Q2.136 -0.8057142857142858 2.0742857142857143 -0.7688571428571429Q2.0125714285714285 -0.7320000000000001 1.9714285714285715 -0.6582857142857144Q1.944 -0.7285714285714286 1.8848571428571428 -0.7671428571428572Q1.8257142857142856 -0.8057142857142858 1.7434285714285715 -0.8057142857142858Q1.6697142857142857 -0.8057142857142858 1.6157142857142857 -0.7731428571428572Q1.5617142857142858 -0.7405714285714287 1.5257142857142858 -0.6737142857142857V-0.7885714285714286H1.3885714285714286V0.0H1.5257142857142858V-0.48000000000000004Q1.5257142857142858 -0.5417142857142857 1.548 -0.5862857142857143Q1.5702857142857143 -0.6308571428571429 1.6114285714285714 -0.654Q1.6525714285714286 -0.6771428571428572 1.709142857142857 -0.6771428571428572Q1.7862857142857145 -0.6771428571428572 1.8231428571428574 -0.6291428571428572Q1.86 -0.5811428571428572 1.86 -0.48000000000000004V0.0H1.9971428571428573V-0.48000000000000004Q1.9971428571428573 -0.5417142857142857 2.0194285714285716 -0.5862857142857143Q2.041714285714286 -0.6308571428571429 2.0828571428571427 -0.654Q2.124 -0.6771428571428572 2.1805714285714286 -0.6771428571428572Q2.257714285714286 -0.6771428571428572 2.294571428571429 -0.6291428571428572Q2.331428571428572 -0.5811428571428572 2.331428571428572 -0.48000000000000004V0.0H2.468571428571429Z M3.2314285714285713 0.37714285714285717V-0.7885714285714286H3.0942857142857143V0.37714285714285717ZM3.8914285714285715 -0.3942857142857143Q3.8914285714285715 -0.5228571428571429 3.838285714285714 -0.6145714285714285Q3.785142857142857 -0.7062857142857143 3.6968571428571426 -0.756Q3.6085714285714285 -0.8057142857142858 3.5005714285714284 -0.8057142857142858Q3.402857142857143 -0.8057142857142858 3.3282857142857143 -0.756Q3.2537142857142856 -0.7062857142857143 3.2117142857142857 -0.6145714285714285Q3.1697142857142855 -0.5228571428571429 3.1697142857142855 -0.3942857142857143Q3.1697142857142855 -0.26742857142857146 3.2117142857142857 -0.17485714285714288Q3.2537142857142856 -0.0822857142857143 3.3282857142857143 -0.03257142857142858Q3.402857142857143 0.017142857142857144 3.5005714285714284 0.017142857142857144Q3.6085714285714285 0.017142857142857144 3.6968571428571426 -0.03257142857142858Q3.785142857142857 -0.0822857142857143 3.838285714285714 -0.17485714285714288Q3.8914285714285715 -0.26742857142857146 3.8914285714285715 -0.3942857142857143ZM3.7525714285714287 -0.3942857142857143Q3.7525714285714287 -0.30342857142857144 3.7157142857142857 -0.24Q3.678857142857143 -0.17657142857142857 3.618 -0.14400000000000002Q3.557142857142857 -0.11142857142857143 3.4834285714285715 -0.11142857142857143Q3.4234285714285715 -0.11142857142857143 3.365142857142857 -0.14400000000000002Q3.306857142857143 -0.17657142857142857 3.269142857142857 -0.24Q3.2314285714285713 -0.30342857142857144 3.2314285714285713 -0.3942857142857143Q3.2314285714285713 -0.48514285714285715 3.269142857142857 -0.5485714285714286Q3.306857142857143 -0.6120000000000001 3.365142857142857 -0.6445714285714286Q3.4234285714285715 -0.6771428571428572 3.4834285714285715 -0.6771428571428572Q3.557142857142857 -0.6771428571428572 3.618 -0.6445714285714286Q3.678857142857143 -0.6120000000000001 3.7157142857142857 -0.5485714285714286Q3.7525714285714287 -0.48514285714285715 3.7525714285714287 -0.3942857142857143Z M5.057142857142857 -0.7885714285714286H4.902857142857142L4.659428571428571 -0.1782857142857143L4.715999999999999 -0.17142857142857143L4.465714285714285 -0.7885714285714286H4.3028571428571425L4.604571428571428 -0.11142857142857143L4.388571428571428 0.37714285714285717H4.542857142857143Z M5.7 -0.7885714285714286H5.562857142857143V0.0H5.7ZM5.938285714285714 -0.6377142857142858 6.013714285714285 -0.7508571428571429Q5.982857142857143 -0.7834285714285715 5.946 -0.7945714285714287Q5.909142857142857 -0.8057142857142858 5.8662857142857145 -0.8057142857142858Q5.811428571428571 -0.8057142857142858 5.758285714285714 -0.7628571428571429Q5.705142857142857 -0.7200000000000001 5.671714285714286 -0.6471428571428572Q5.638285714285714 -0.5742857142857143 5.638285714285714 -0.48000000000000004H5.7Q5.7 -0.5365714285714286 5.711142857142857 -0.5811428571428572Q5.722285714285714 -0.6257142857142858 5.751428571428571 -0.6514285714285715Q5.780571428571428 -0.6771428571428572 5.832 -0.6771428571428572Q5.8662857142857145 -0.6771428571428572 5.888571428571429 -0.6677142857142857Q5.910857142857143 -0.6582857142857144 5.938285714285714 -0.6377142857142858Z M6.589714285714286 -0.24342857142857144Q6.589714285714286 -0.2862857142857143 6.610285714285714 -0.31714285714285717Q6.630857142857143 -0.34800000000000003 6.6728571428571435 -0.3651428571428572Q6.714857142857143 -0.38228571428571434 6.781714285714286 -0.38228571428571434Q6.853714285714286 -0.38228571428571434 6.917142857142857 -0.3642857142857143Q6.980571428571428 -0.3462857142857143 7.040571428571429 -0.30514285714285716V-0.38571428571428573Q7.0285714285714285 -0.4011428571428572 6.994285714285715 -0.42600000000000005Q6.96 -0.4508571428571429 6.902571428571429 -0.47057142857142864Q6.845142857142857 -0.4902857142857143 6.759428571428572 -0.4902857142857143Q6.613714285714286 -0.4902857142857143 6.532285714285715 -0.42085714285714293Q6.450857142857143 -0.3514285714285715 6.450857142857143 -0.2365714285714286Q6.450857142857143 -0.156 6.488571428571429 -0.09942857142857142Q6.526285714285715 -0.04285714285714286 6.588857142857143 -0.012857142857142857Q6.651428571428571 0.017142857142857144 6.723428571428571 0.017142857142857144Q6.788571428571428 0.017142857142857144 6.854571428571429 -0.0068571428571428585Q6.920571428571429 -0.03085714285714286 6.966 -0.08057142857142857Q7.011428571428572 -0.13028571428571428 7.011428571428572 -0.20571428571428574L6.984 -0.3085714285714286Q6.984 -0.24685714285714289 6.954000000000001 -0.19971428571428573Q6.924 -0.15257142857142858 6.873428571428572 -0.12685714285714286Q6.822857142857143 -0.10114285714285715 6.759428571428572 -0.10114285714285715Q6.709714285714286 -0.10114285714285715 6.671142857142858 -0.11742857142857144Q6.632571428571429 -0.13371428571428573 6.611142857142857 -0.16628571428571431Q6.589714285714286 -0.19885714285714287 6.589714285714286 -0.24342857142857144ZM6.569142857142857 -0.6068571428571429Q6.588 -0.6205714285714287 6.620571428571429 -0.6394285714285715Q6.653142857142857 -0.6582857142857144 6.700285714285714 -0.672Q6.747428571428571 -0.6857142857142857 6.805714285714286 -0.6857142857142857Q6.841714285714286 -0.6857142857142857 6.874285714285714 -0.6788571428571428Q6.906857142857143 -0.672 6.9317142857142855 -0.6565714285714286Q6.956571428571428 -0.6411428571428572 6.970285714285714 -0.6145714285714287Q6.984 -0.5880000000000001 6.984 -0.5468571428571429V0.0H7.121142857142857V-0.5657142857142857Q7.121142857142857 -0.6428571428571429 7.082571428571429 -0.6960000000000001Q7.0440000000000005 -0.7491428571428572 6.974571428571429 -0.7774285714285716Q6.905142857142858 -0.8057142857142858 6.812571428571428 -0.8057142857142858Q6.702857142857143 -0.8057142857142858 6.624857142857143 -0.7731428571428572Q6.546857142857143 -0.7405714285714287 6.502285714285715 -0.7080000000000001Z M7.764 -0.06857142857142857Q7.764 -0.03085714285714286 7.792285714285715 -0.0025714285714285717Q7.820571428571429 0.025714285714285717 7.8582857142857145 0.025714285714285717Q7.897714285714286 0.025714285714285717 7.925142857142857 -0.0025714285714285717Q7.952571428571429 -0.03085714285714286 7.952571428571429 -0.06857142857142857Q7.952571428571429 -0.10800000000000001 7.925142857142857 -0.13542857142857145Q7.897714285714286 -0.16285714285714287 7.8582857142857145 -0.16285714285714287Q7.820571428571429 -0.16285714285714287 7.792285714285715 -0.13542857142857145Q7.764 -0.10800000000000001 7.764 -0.06857142857142857Z M8.926285714285715 0.017142857142857144Q9.053142857142857 0.017142857142857144 9.146571428571429 -0.03342857142857143Q9.24 -0.084 9.301714285714286 -0.18342857142857144L9.190285714285714 -0.2537142857142857Q9.147428571428572 -0.18171428571428572 9.085714285714285 -0.14657142857142857Q9.024000000000001 -0.11142857142857143 8.943428571428571 -0.11142857142857143Q8.862857142857143 -0.11142857142857143 8.806285714285714 -0.14571428571428574Q8.749714285714287 -0.18000000000000002 8.720571428571429 -0.24514285714285716Q8.691428571428572 -0.31028571428571433 8.691428571428572 -0.4028571428571429Q8.693142857142858 -0.49371428571428577 8.723142857142857 -0.5562857142857143Q8.753142857142857 -0.6188571428571429 8.808857142857143 -0.6522857142857144Q8.864571428571429 -0.6857142857142857 8.943428571428571 -0.6857142857142857Q9.010285714285715 -0.6857142857142857 9.06 -0.6565714285714286Q9.109714285714286 -0.6274285714285714 9.138000000000002 -0.5760000000000001Q9.166285714285715 -0.5245714285714286 9.166285714285715 -0.4542857142857143Q9.166285714285715 -0.44228571428571434 9.161142857142858 -0.4242857142857143Q9.156 -0.4062857142857143 9.150857142857143 -0.39771428571428574L9.205714285714286 -0.4765714285714286H8.64V-0.36000000000000004H9.313714285714287Q9.313714285714287 -0.36342857142857143 9.31457142857143 -0.37628571428571433Q9.315428571428573 -0.3891428571428572 9.315428571428573 -0.4011428571428572Q9.315428571428573 -0.5262857142857144 9.270857142857142 -0.6171428571428572Q9.226285714285714 -0.7080000000000001 9.143142857142857 -0.7568571428571429Q9.06 -0.8057142857142858 8.943428571428571 -0.8057142857142858Q8.826857142857143 -0.8057142857142858 8.73857142857143 -0.7542857142857144Q8.650285714285715 -0.702857142857143 8.601428571428572 -0.6102857142857143Q8.55257142857143 -0.5177142857142858 8.55257142857143 -0.3942857142857143Q8.55257142857143 -0.2725714285714286 8.599714285714287 -0.18Q8.646857142857144 -0.08742857142857144 8.731714285714286 -0.03514285714285715Q8.816571428571429 0.017142857142857144 8.926285714285715 0.017142857142857144Z M10.018285714285714 -0.3085714285714286V-0.7885714285714286H9.881142857142857V-0.2914285714285714Q9.881142857142857 -0.15085714285714286 9.954857142857144 -0.06685714285714285Q10.028571428571428 0.017142857142857144 10.152000000000001 0.017142857142857144Q10.230857142857143 0.017142857142857144 10.289142857142856 -0.018000000000000002Q10.347428571428571 -0.053142857142857144 10.386857142857142 -0.12342857142857144V0.0H10.524000000000001V-0.7885714285714286H10.386857142857142V-0.3085714285714286Q10.386857142857142 -0.2502857142857143 10.362 -0.2057142857142857Q10.337142857142858 -0.16114285714285714 10.291714285714287 -0.1362857142857143Q10.246285714285715 -0.11142857142857143 10.186285714285715 -0.11142857142857143Q10.104000000000001 -0.11142857142857143 10.061142857142858 -0.16285714285714287Q10.018285714285714 -0.2142857142857143 10.018285714285714 -0.3085714285714286Z" fill="#C79A4B"/></g><g transform="translate(8.000,40.000)"><path d="M0.1665714285714286 -0.3331428571428572 0.05971428571428573 -0.2608571428571429Q0.09585714285714288 -0.1885714285714286 0.15321428571428575 -0.12492857142857146Q0.2105714285714286 -0.0612857142857143 0.2867857142857143 -0.02278571428571429Q0.36300000000000004 0.015714285714285715 0.4525714285714286 0.015714285714285715Q0.5185714285714287 0.015714285714285715 0.5790714285714287 -0.006285714285714287Q0.6395714285714287 -0.02828571428571429 0.6875000000000001 -0.06914285714285714Q0.7354285714285715 -0.11000000000000001 0.7629285714285716 -0.16814285714285715Q0.7904285714285716 -0.2262857142857143 0.7904285714285716 -0.2985714285714286Q0.7904285714285716 -0.37400000000000005 0.7637142857142858 -0.42821428571428577Q0.7370000000000001 -0.48242857142857154 0.695357142857143 -0.5209285714285715Q0.6537142857142858 -0.5594285714285715 0.6050000000000001 -0.5845714285714287Q0.5562857142857144 -0.6097142857142859 0.5122857142857143 -0.6254285714285716Q0.4164285714285715 -0.6584285714285716 0.3606428571428572 -0.6922142857142859Q0.30485714285714294 -0.7260000000000001 0.28128571428571436 -0.7645000000000002Q0.2577142857142858 -0.8030000000000002 0.2577142857142858 -0.8485714285714288Q0.2577142857142858 -0.9020000000000001 0.2985714285714286 -0.9452142857142859Q0.33942857142857147 -0.9884285714285717 0.4290000000000001 -0.9884285714285717Q0.4934285714285715 -0.9884285714285717 0.5382142857142858 -0.9632857142857145Q0.5830000000000001 -0.9381428571428573 0.6144285714285715 -0.898857142857143Q0.645857142857143 -0.8595714285714288 0.6662857142857144 -0.8187142857142858L0.7810000000000001 -0.8847142857142859Q0.7542857142857144 -0.9428571428571431 0.7071428571428573 -0.9955000000000002Q0.6600000000000001 -1.0481428571428573 0.5932142857142858 -1.0819285714285716Q0.5264285714285715 -1.1157142857142859 0.43685714285714294 -1.1157142857142859Q0.3441428571428572 -1.1157142857142859 0.2718571428571429 -1.0787857142857145Q0.1995714285714286 -1.041857142857143 0.15871428571428575 -0.9774285714285715Q0.11785714285714288 -0.9130000000000001 0.11785714285714288 -0.8312857142857144Q0.11785714285714288 -0.755857142857143 0.14692857142857146 -0.7040000000000002Q0.17600000000000005 -0.6521428571428572 0.2215714285714286 -0.6167857142857144Q0.2671428571428572 -0.5814285714285715 0.3174285714285715 -0.5586428571428572Q0.36771428571428577 -0.5358571428571429 0.40857142857142864 -0.5217142857142858Q0.47142857142857153 -0.4997142857142858 0.5272142857142859 -0.4722142857142858Q0.5830000000000001 -0.4447142857142858 0.6175714285714287 -0.4007142857142858Q0.6521428571428572 -0.35671428571428576 0.6521428571428572 -0.2828571428571429Q0.6521428571428572 -0.20742857142857146 0.5987142857142858 -0.15871428571428575Q0.5452857142857144 -0.11000000000000001 0.45728571428571435 -0.11000000000000001Q0.39128571428571435 -0.11000000000000001 0.3394285714285715 -0.1382857142857143Q0.28757142857142864 -0.1665714285714286 0.2459285714285715 -0.2168571428571429Q0.20428571428571432 -0.2671428571428572 0.1665714285714286 -0.3331428571428572Z M1.4064285714285716 -0.5342857142857144H2.160714285714286V-0.6600000000000001H1.4064285714285716ZM2.0711428571428576 -1.1V0.0H2.204714285714286V-1.1ZM1.3325714285714287 -1.1V0.0H1.4661428571428574V-1.1Z M2.8018571428571435 -1.1V0.0H2.935428571428572V-1.1Z M3.5325714285714294 -1.1V0.0H3.666142857142858V-1.1ZM3.606428571428572 -0.9742857142857144H3.831142857142858Q3.9380000000000006 -0.9742857142857144 4.004785714285715 -0.9232142857142859Q4.0715714285714295 -0.8721428571428573 4.0715714285714295 -0.7700000000000001Q4.0715714285714295 -0.6694285714285716 4.004785714285715 -0.6175714285714287Q3.9380000000000006 -0.5657142857142858 3.831142857142858 -0.5657142857142858H3.606428571428572V-0.44000000000000006H3.831142857142858Q3.9380000000000006 -0.44000000000000006 4.022071428571429 -0.48007142857142865Q4.106142857142858 -0.5201428571428572 4.155642857142858 -0.5947857142857145Q4.2051428571428575 -0.6694285714285716 4.2051428571428575 -0.7700000000000001Q4.2051428571428575 -0.8721428571428573 4.155642857142858 -0.9460000000000002Q4.106142857142858 -1.019857142857143 4.022071428571429 -1.0599285714285716Q3.9380000000000006 -1.1 3.831142857142858 -1.1H3.606428571428572Z M5.44657142857143 -0.9742857142857144H5.729428571428573V0.0H5.863000000000001V-0.9742857142857144H6.145857142857144V-1.1H5.44657142857143Z M6.633000000000002 -0.55Q6.633000000000002 -0.6741428571428573 6.687214285714287 -0.7715714285714287Q6.741428571428573 -0.8690000000000001 6.835714285714287 -0.9255714285714287Q6.9300000000000015 -0.9821428571428573 7.049428571428573 -0.9821428571428573Q7.170428571428573 -0.9821428571428573 7.263928571428573 -0.9255714285714287Q7.3574285714285725 -0.8690000000000001 7.4116428571428585 -0.7715714285714287Q7.4658571428571445 -0.6741428571428573 7.4658571428571445 -0.55Q7.4658571428571445 -0.42585714285714293 7.4116428571428585 -0.3284285714285715Q7.3574285714285725 -0.23100000000000004 7.263928571428573 -0.17442857142857146Q7.170428571428573 -0.11785714285714288 7.049428571428573 -0.11785714285714288Q6.9300000000000015 -0.11785714285714288 6.835714285714287 -0.17442857142857146Q6.741428571428573 -0.23100000000000004 6.687214285714287 -0.3284285714285715Q6.633000000000002 -0.42585714285714293 6.633000000000002 -0.55ZM6.49157142857143 -0.55Q6.49157142857143 -0.43057142857142866 6.533214285714287 -0.3268571428571429Q6.5748571428571445 -0.22314285714285717 6.650285714285715 -0.14692857142857146Q6.725714285714287 -0.07071428571428573 6.827857142857145 -0.027500000000000007Q6.9300000000000015 0.015714285714285715 7.049428571428573 0.015714285714285715Q7.170428571428573 0.015714285714285715 7.271785714285716 -0.027500000000000007Q7.3731428571428586 -0.07071428571428573 7.44857142857143 -0.14692857142857146Q7.524000000000002 -0.22314285714285717 7.5656428571428584 -0.3268571428571429Q7.607285714285716 -0.43057142857142866 7.607285714285716 -0.55Q7.607285714285716 -0.6710000000000002 7.5656428571428584 -0.7739285714285715Q7.524000000000002 -0.876857142857143 7.44857142857143 -0.9530714285714287Q7.3731428571428586 -1.0292857142857144 7.271785714285716 -1.0725000000000002Q7.170428571428573 -1.1157142857142859 7.049428571428573 -1.1157142857142859Q6.9300000000000015 -1.1157142857142859 6.827857142857145 -1.0725000000000002Q6.725714285714287 -1.0292857142857144 6.650285714285715 -0.9530714285714287Q6.5748571428571445 -0.876857142857143 6.533214285714287 -0.7739285714285715Q6.49157142857143 -0.6710000000000002 6.49157142857143 -0.55Z" fill="#6B615A"/></g><line x1="8" y1="48" x2="92" y2="48" stroke="#CCC4B6" stroke-width="0.15"/><line x1="8" y1="56" x2="92" y2="56" stroke="#CCC4B6" stroke-width="0.15"/><line x1="8" y1="64" x2="92" y2="64" stroke="#CCC4B6" stroke-width="0.15"/><line x1="8" y1="72" x2="92" y2="72" stroke="#CCC4B6" stroke-width="0.15"/><line x1="8" y1="80" x2="92" y2="80" stroke="#CCC4B6" stroke-width="0.15"/><g transform="translate(8.000,100.000)"><path d="M0.1995714285714286 -0.9742857142857144H0.6914285714285715V-1.1H0.1995714285714286ZM0.1995714285714286 -0.5342857142857144H0.6757142857142858V-0.6600000000000001H0.1995714285714286ZM0.12571428571428572 -1.1V0.0H0.25928571428571434V-1.1Z M1.4535714285714287 -0.5421428571428573 1.830714285714286 0.0H1.995714285714286L1.6028571428571432 -0.5421428571428573ZM1.2571428571428573 -1.1V0.0H1.390714285714286V-1.1ZM1.3310000000000002 -0.9821428571428573H1.555714285714286Q1.6264285714285718 -0.9821428571428573 1.6806428571428575 -0.9570000000000002Q1.7348571428571433 -0.931857142857143 1.7655000000000003 -0.8847142857142859Q1.7961428571428575 -0.8375714285714287 1.7961428571428575 -0.7700000000000001Q1.7961428571428575 -0.7024285714285715 1.7655000000000003 -0.6552857142857144Q1.7348571428571433 -0.6081428571428572 1.6806428571428575 -0.5830000000000001Q1.6264285714285718 -0.5578571428571429 1.555714285714286 -0.5578571428571429H1.3310000000000002V-0.44000000000000006H1.555714285714286Q1.6625714285714288 -0.44000000000000006 1.7466428571428574 -0.48007142857142865Q1.830714285714286 -0.5201428571428572 1.880214285714286 -0.5947857142857145Q1.9297142857142862 -0.6694285714285716 1.9297142857142862 -0.7700000000000001Q1.9297142857142862 -0.8721428571428573 1.880214285714286 -0.9460000000000002Q1.830714285714286 -1.019857142857143 1.7466428571428574 -1.0599285714285716Q1.6625714285714288 -1.1 1.555714285714286 -1.1H1.3310000000000002Z M2.561428571428572 -0.55Q2.561428571428572 -0.6741428571428573 2.6156428571428574 -0.7715714285714287Q2.6698571428571434 -0.8690000000000001 2.7641428571428577 -0.9255714285714287Q2.858428571428572 -0.9821428571428573 2.977857142857143 -0.9821428571428573Q3.0988571428571436 -0.9821428571428573 3.1923571428571433 -0.9255714285714287Q3.2858571428571435 -0.8690000000000001 3.340071428571429 -0.7715714285714287Q3.394285714285715 -0.6741428571428573 3.394285714285715 -0.55Q3.394285714285715 -0.42585714285714293 3.340071428571429 -0.3284285714285715Q3.2858571428571435 -0.23100000000000004 3.1923571428571433 -0.17442857142857146Q3.0988571428571436 -0.11785714285714288 2.977857142857143 -0.11785714285714288Q2.858428571428572 -0.11785714285714288 2.7641428571428577 -0.17442857142857146Q2.6698571428571434 -0.23100000000000004 2.6156428571428574 -0.3284285714285715Q2.561428571428572 -0.42585714285714293 2.561428571428572 -0.55ZM2.4200000000000004 -0.55Q2.4200000000000004 -0.43057142857142866 2.4616428571428575 -0.3268571428571429Q2.503285714285715 -0.22314285714285717 2.5787142857142866 -0.14692857142857146Q2.654142857142858 -0.07071428571428573 2.756285714285715 -0.027500000000000007Q2.858428571428572 0.015714285714285715 2.977857142857143 0.015714285714285715Q3.0988571428571436 0.015714285714285715 3.2002142857142863 -0.027500000000000007Q3.301571428571429 -0.07071428571428573 3.3770000000000007 -0.14692857142857146Q3.4524285714285723 -0.22314285714285717 3.4940714285714294 -0.3268571428571429Q3.5357142857142865 -0.43057142857142866 3.5357142857142865 -0.55Q3.5357142857142865 -0.6710000000000002 3.4940714285714294 -0.7739285714285715Q3.4524285714285723 -0.876857142857143 3.3770000000000007 -0.9530714285714287Q3.301571428571429 -1.0292857142857144 3.2002142857142863 -1.0725000000000002Q3.0988571428571436 -1.1157142857142859 2.977857142857143 -1.1157142857142859Q2.858428571428572 -1.1157142857142859 2.756285714285715 -1.0725000000000002Q2.654142857142858 -1.0292857142857144 2.5787142857142866 -0.9530714285714287Q2.503285714285715 -0.876857142857143 2.4616428571428575 -0.7739285714285715Q2.4200000000000004 -0.6710000000000002 2.4200000000000004 -0.55Z M4.222428571428572 -0.7432857142857144 4.580714285714286 -0.10214285714285716 4.939000000000001 -0.7432857142857144 5.020714285714286 0.0H5.154285714285715L5.020714285714286 -1.1550000000000002L4.580714285714286 -0.3582857142857144L4.140714285714286 -1.1550000000000002L4.007142857142858 0.0H4.140714285714286Z" fill="#6B615A"/></g><g transform="translate(8.000,106.000)"><path d="M0.254 0.0H0.96V-0.16H0.254ZM0.254 -1.24H0.96V-1.4000000000000001H0.254ZM0.254 -0.68H0.92V-0.84H0.254ZM0.16 -1.4000000000000001V0.0H0.33V-1.4000000000000001Z M2.59 -0.58Q2.59 -0.6940000000000001 2.555 -0.775Q2.5200000000000005 -0.856 2.454 -0.898Q2.388 -0.9400000000000001 2.2940000000000005 -0.9400000000000001Q2.202 -0.9400000000000001 2.13 -0.897Q2.0580000000000003 -0.854 2.0100000000000002 -0.768Q1.9780000000000002 -0.85 1.9090000000000003 -0.895Q1.8400000000000003 -0.9400000000000001 1.7440000000000002 -0.9400000000000001Q1.6580000000000001 -0.9400000000000001 1.5950000000000002 -0.902Q1.532 -0.864 1.4900000000000002 -0.786V-0.92H1.33V0.0H1.4900000000000002V-0.56Q1.4900000000000002 -0.632 1.5160000000000002 -0.6839999999999999Q1.5420000000000003 -0.736 1.5900000000000003 -0.763Q1.6380000000000001 -0.79 1.7040000000000002 -0.79Q1.794 -0.79 1.8370000000000002 -0.734Q1.8800000000000003 -0.678 1.8800000000000003 -0.56V0.0H2.04V-0.56Q2.04 -0.632 2.066 -0.6839999999999999Q2.092 -0.736 2.14 -0.763Q2.188 -0.79 2.2540000000000004 -0.79Q2.3440000000000003 -0.79 2.3870000000000005 -0.734Q2.43 -0.678 2.43 -0.56V0.0H2.59Z M3.12 0.44V-0.92H2.9600000000000004V0.44ZM3.8900000000000006 -0.46Q3.8900000000000006 -0.61 3.8280000000000003 -0.7170000000000001Q3.7660000000000005 -0.8240000000000001 3.6630000000000003 -0.8820000000000001Q3.5600000000000005 -0.9400000000000001 3.434 -0.9400000000000001Q3.3200000000000003 -0.9400000000000001 3.2330000000000005 -0.8820000000000001Q3.1460000000000004 -0.8240000000000001 3.0970000000000004 -0.7170000000000001Q3.0480000000000005 -0.61 3.0480000000000005 -0.46Q3.0480000000000005 -0.312 3.0970000000000004 -0.20400000000000001Q3.1460000000000004 -0.096 3.2330000000000005 -0.038Q3.3200000000000003 0.02 3.434 0.02Q3.5600000000000005 0.02 3.6630000000000003 -0.038Q3.7660000000000005 -0.096 3.8280000000000003 -0.20400000000000001Q3.8900000000000006 -0.312 3.8900000000000006 -0.46ZM3.728 -0.46Q3.728 -0.354 3.6850000000000005 -0.28Q3.6420000000000003 -0.20600000000000002 3.5710000000000006 -0.168Q3.5000000000000004 -0.13 3.414 -0.13Q3.3440000000000003 -0.13 3.2760000000000002 -0.168Q3.208 -0.20600000000000002 3.164 -0.28Q3.12 -0.354 3.12 -0.46Q3.12 -0.5660000000000001 3.164 -0.64Q3.208 -0.714 3.2760000000000002 -0.752Q3.3440000000000003 -0.79 3.414 -0.79Q3.5000000000000004 -0.79 3.5710000000000006 -0.752Q3.6420000000000003 -0.714 3.6850000000000005 -0.64Q3.728 -0.5660000000000001 3.728 -0.46Z M4.890000000000001 -0.92H4.710000000000001L4.426000000000001 -0.20800000000000002L4.492000000000001 -0.2L4.200000000000001 -0.92H4.010000000000001L4.362000000000001 -0.13L4.11 0.44H4.290000000000001Z M5.28 -0.92H5.120000000000001V0.0H5.28ZM5.558000000000001 -0.744 5.646000000000001 -0.876Q5.61 -0.914 5.567 -0.927Q5.524000000000001 -0.9400000000000001 5.474 -0.9400000000000001Q5.410000000000001 -0.9400000000000001 5.348000000000001 -0.89Q5.2860000000000005 -0.84 5.247000000000001 -0.755Q5.208000000000001 -0.67 5.208000000000001 -0.56H5.28Q5.28 -0.626 5.293000000000001 -0.6779999999999999Q5.306000000000001 -0.73 5.340000000000001 -0.76Q5.3740000000000006 -0.79 5.434000000000001 -0.79Q5.474 -0.79 5.5 -0.779Q5.526000000000001 -0.768 5.558000000000001 -0.744Z M5.958000000000001 -0.28400000000000003Q5.958000000000001 -0.334 5.982000000000001 -0.37Q6.006 -0.406 6.055000000000001 -0.42600000000000005Q6.104000000000001 -0.446 6.182 -0.446Q6.266000000000001 -0.446 6.340000000000001 -0.42500000000000004Q6.414000000000001 -0.404 6.484000000000001 -0.356V-0.45Q6.470000000000001 -0.468 6.430000000000001 -0.497Q6.390000000000001 -0.526 6.323 -0.549Q6.256 -0.5720000000000001 6.156000000000001 -0.5720000000000001Q5.986000000000001 -0.5720000000000001 5.891 -0.49100000000000005Q5.796 -0.41000000000000003 5.796 -0.276Q5.796 -0.182 5.84 -0.11599999999999999Q5.884 -0.05 5.957000000000001 -0.015000000000000001Q6.03 0.02 6.114000000000001 0.02Q6.19 0.02 6.267 -0.008000000000000002Q6.344 -0.036000000000000004 6.397 -0.094Q6.450000000000001 -0.152 6.450000000000001 -0.24L6.418000000000001 -0.36Q6.418000000000001 -0.28800000000000003 6.383000000000001 -0.233Q6.348000000000001 -0.178 6.289000000000001 -0.148Q6.23 -0.11800000000000001 6.156000000000001 -0.11800000000000001Q6.098000000000001 -0.11800000000000001 6.053000000000001 -0.137Q6.008000000000001 -0.156 5.9830000000000005 -0.194Q5.958000000000001 -0.232 5.958000000000001 -0.28400000000000003ZM5.934000000000001 -0.708Q5.956 -0.724 5.994000000000001 -0.746Q6.032000000000001 -0.768 6.087000000000001 -0.784Q6.142 -0.8 6.210000000000001 -0.8Q6.252000000000001 -0.8 6.290000000000001 -0.792Q6.328 -0.784 6.357000000000001 -0.766Q6.386000000000001 -0.748 6.402000000000001 -0.7170000000000001Q6.418000000000001 -0.686 6.418000000000001 -0.638V0.0H6.578V-0.66Q6.578 -0.75 6.533 -0.812Q6.488 -0.874 6.407 -0.907Q6.3260000000000005 -0.9400000000000001 6.218000000000001 -0.9400000000000001Q6.090000000000001 -0.9400000000000001 5.9990000000000006 -0.902Q5.908 -0.864 5.856000000000001 -0.8260000000000001Z" fill="#4A423C"/></g><g transform="translate(8.000,110.600)"><path d="M0.16 -1.4000000000000001V0.0H0.33V-1.4000000000000001ZM0.254 -1.24H0.54Q0.676 -1.24 0.761 -1.175Q0.846 -1.11 0.846 -0.98Q0.846 -0.852 0.761 -0.786Q0.676 -0.72 0.54 -0.72H0.254V-0.56H0.54Q0.676 -0.56 0.783 -0.611Q0.89 -0.662 0.9530000000000001 -0.757Q1.016 -0.852 1.016 -0.98Q1.016 -1.11 0.9530000000000001 -1.2040000000000002Q0.89 -1.298 0.783 -1.3490000000000002Q0.676 -1.4000000000000001 0.54 -1.4000000000000001H0.254Z M1.4460000000000002 -0.92H1.286V0.0H1.4460000000000002ZM1.7240000000000002 -0.744 1.8120000000000003 -0.876Q1.7760000000000002 -0.914 1.733 -0.927Q1.6900000000000002 -0.9400000000000001 1.6400000000000001 -0.9400000000000001Q1.576 -0.9400000000000001 1.5140000000000002 -0.89Q1.4520000000000002 -0.84 1.4130000000000003 -0.755Q1.374 -0.67 1.374 -0.56H1.4460000000000002Q1.4460000000000002 -0.626 1.459 -0.6779999999999999Q1.4720000000000002 -0.73 1.5060000000000002 -0.76Q1.54 -0.79 1.6 -0.79Q1.6400000000000001 -0.79 1.6660000000000001 -0.779Q1.6920000000000002 -0.768 1.7240000000000002 -0.744Z M2.052 -1.3Q2.052 -1.256 2.085 -1.2229999999999999Q2.1180000000000003 -1.19 2.162 -1.19Q2.208 -1.19 2.24 -1.2229999999999999Q2.2720000000000002 -1.256 2.2720000000000002 -1.3Q2.2720000000000002 -1.346 2.24 -1.3780000000000001Q2.208 -1.41 2.162 -1.41Q2.1180000000000003 -1.41 2.085 -1.3780000000000001Q2.052 -1.346 2.052 -1.3ZM2.0820000000000003 -0.92V0.0H2.242V-0.92Z M3.242 -0.56V0.0H3.402V-0.58Q3.402 -0.746 3.317 -0.843Q3.232 -0.9400000000000001 3.0860000000000003 -0.9400000000000001Q2.9960000000000004 -0.9400000000000001 2.9270000000000005 -0.9Q2.858 -0.86 2.8120000000000003 -0.776V-0.92H2.652V0.0H2.8120000000000003V-0.56Q2.8120000000000003 -0.628 2.841 -0.6799999999999999Q2.87 -0.732 2.923 -0.761Q2.9760000000000004 -0.79 3.0460000000000003 -0.79Q3.1420000000000003 -0.79 3.192 -0.732Q3.242 -0.674 3.242 -0.56Z M3.8200000000000007 -0.28200000000000003 3.6940000000000004 -0.20400000000000001Q3.7200000000000006 -0.15 3.771000000000001 -0.098Q3.8220000000000005 -0.046 3.896000000000001 -0.013Q3.9700000000000006 0.02 4.062 0.02Q4.204000000000001 0.02 4.291 -0.060000000000000005Q4.378 -0.14 4.378 -0.26Q4.378 -0.342 4.339 -0.394Q4.300000000000001 -0.446 4.234000000000001 -0.483Q4.168000000000001 -0.52 4.088000000000001 -0.552Q4.040000000000001 -0.5720000000000001 3.9960000000000004 -0.5940000000000001Q3.9520000000000004 -0.616 3.9240000000000004 -0.644Q3.896000000000001 -0.672 3.896000000000001 -0.708Q3.896000000000001 -0.754 3.9320000000000004 -0.776Q3.9680000000000004 -0.798 4.018000000000001 -0.798Q4.090000000000001 -0.798 4.147 -0.764Q4.204000000000001 -0.73 4.242000000000001 -0.678L4.370000000000001 -0.76Q4.3420000000000005 -0.812 4.292000000000001 -0.8520000000000001Q4.242000000000001 -0.892 4.1770000000000005 -0.916Q4.112 -0.9400000000000001 4.038 -0.9400000000000001Q3.9640000000000004 -0.9400000000000001 3.8950000000000005 -0.914Q3.8260000000000005 -0.888 3.7830000000000004 -0.8340000000000001Q3.7400000000000007 -0.78 3.7400000000000007 -0.6980000000000001Q3.7400000000000007 -0.618 3.7810000000000006 -0.565Q3.8220000000000005 -0.512 3.8830000000000005 -0.479Q3.9440000000000004 -0.446 4.0040000000000004 -0.422Q4.058000000000001 -0.402 4.106000000000001 -0.379Q4.154000000000001 -0.356 4.1850000000000005 -0.32299999999999995Q4.216 -0.29 4.216 -0.242Q4.216 -0.188 4.1770000000000005 -0.157Q4.138000000000001 -0.126 4.07 -0.126Q4.014 -0.126 3.9670000000000005 -0.14700000000000002Q3.920000000000001 -0.168 3.884000000000001 -0.20400000000000001Q3.8480000000000008 -0.24 3.8200000000000007 -0.28200000000000003Z M5.024000000000001 0.02Q5.172000000000001 0.02 5.281000000000001 -0.039Q5.390000000000001 -0.098 5.462000000000001 -0.214L5.332000000000001 -0.296Q5.282000000000001 -0.212 5.210000000000001 -0.17099999999999999Q5.138000000000001 -0.13 5.0440000000000005 -0.13Q4.950000000000001 -0.13 4.884 -0.16999999999999998Q4.8180000000000005 -0.21 4.784000000000001 -0.286Q4.750000000000001 -0.362 4.750000000000001 -0.47000000000000003Q4.752000000000001 -0.5760000000000001 4.787000000000001 -0.649Q4.822000000000001 -0.722 4.8870000000000005 -0.761Q4.952000000000001 -0.8 5.0440000000000005 -0.8Q5.122000000000001 -0.8 5.180000000000001 -0.766Q5.238 -0.732 5.271000000000001 -0.6719999999999999Q5.304 -0.612 5.304 -0.53Q5.304 -0.516 5.298 -0.495Q5.292000000000001 -0.47400000000000003 5.2860000000000005 -0.464L5.3500000000000005 -0.556H4.69V-0.42H5.476000000000001Q5.476000000000001 -0.424 5.477 -0.439Q5.478000000000001 -0.454 5.478000000000001 -0.468Q5.478000000000001 -0.614 5.426 -0.72Q5.3740000000000006 -0.8260000000000001 5.277000000000001 -0.883Q5.180000000000001 -0.9400000000000001 5.0440000000000005 -0.9400000000000001Q4.908 -0.9400000000000001 4.805000000000001 -0.8800000000000001Q4.702000000000001 -0.8200000000000001 4.645000000000001 -0.712Q4.588000000000001 -0.604 4.588000000000001 -0.46Q4.588000000000001 -0.318 4.643000000000001 -0.21000000000000002Q4.698 -0.10200000000000001 4.797000000000001 -0.041Q4.896000000000001 0.02 5.024000000000001 0.02Z M6.368000000000001 -0.56V0.0H6.528000000000001V-0.58Q6.528000000000001 -0.746 6.443000000000001 -0.843Q6.3580000000000005 -0.9400000000000001 6.212000000000001 -0.9400000000000001Q6.122000000000001 -0.9400000000000001 6.053000000000001 -0.9Q5.984000000000001 -0.86 5.938000000000001 -0.776V-0.92H5.778000000000001V0.0H5.938000000000001V-0.56Q5.938000000000001 -0.628 5.9670000000000005 -0.6799999999999999Q5.996000000000001 -0.732 6.049000000000001 -0.761Q6.102000000000001 -0.79 6.172000000000001 -0.79Q6.268000000000001 -0.79 6.318000000000001 -0.732Q6.368000000000001 -0.674 6.368000000000001 -0.56Z M6.846000000000001 0.06Q6.846000000000001 0.178 6.904000000000001 0.269Q6.962000000000001 0.36 7.065000000000001 0.41000000000000003Q7.168000000000001 0.46 7.302000000000001 0.46Q7.418000000000001 0.46 7.522000000000001 0.406Q7.626000000000001 0.352 7.692000000000001 0.245Q7.758000000000001 0.138 7.758000000000001 -0.02V-0.92H7.598000000000001V-0.02Q7.598000000000001 0.096 7.553000000000001 0.16899999999999998Q7.508000000000001 0.242 7.440000000000001 0.276Q7.372000000000001 0.31 7.302000000000001 0.31Q7.212000000000001 0.31 7.146000000000001 0.275Q7.080000000000001 0.24 7.0440000000000005 0.183Q7.008000000000001 0.126 7.008000000000001 0.06ZM6.828000000000001 -0.46Q6.828000000000001 -0.312 6.890000000000001 -0.20400000000000001Q6.952000000000001 -0.096 7.056000000000001 -0.038Q7.160000000000001 0.02 7.284000000000001 0.02Q7.400000000000001 0.02 7.486000000000001 -0.038Q7.572000000000001 -0.096 7.621 -0.20400000000000001Q7.670000000000001 -0.312 7.670000000000001 -0.46Q7.670000000000001 -0.61 7.621 -0.7170000000000001Q7.572000000000001 -0.8240000000000001 7.486000000000001 -0.8820000000000001Q7.400000000000001 -0.9400000000000001 7.284000000000001 -0.9400000000000001Q7.160000000000001 -0.9400000000000001 7.056000000000001 -0.8820000000000001Q6.952000000000001 -0.8240000000000001 6.890000000000001 -0.7170000000000001Q6.828000000000001 -0.61 6.828000000000001 -0.46ZM6.990000000000001 -0.46Q6.990000000000001 -0.5660000000000001 7.033000000000001 -0.64Q7.0760000000000005 -0.714 7.148000000000001 -0.752Q7.220000000000001 -0.79 7.304000000000001 -0.79Q7.356000000000001 -0.79 7.408000000000001 -0.768Q7.460000000000001 -0.746 7.503000000000001 -0.704Q7.546000000000001 -0.662 7.572000000000001 -0.601Q7.598000000000001 -0.54 7.598000000000001 -0.46Q7.598000000000001 -0.354 7.554 -0.28Q7.510000000000001 -0.20600000000000002 7.442 -0.168Q7.3740000000000006 -0.13 7.304000000000001 -0.13Q7.220000000000001 -0.13 7.148000000000001 -0.168Q7.0760000000000005 -0.20600000000000002 7.033000000000001 -0.28Q6.990000000000001 -0.354 6.990000000000001 -0.46Z M8.288000000000002 -0.92H8.128000000000002V0.0H8.288000000000002ZM8.566 -0.744 8.654000000000002 -0.876Q8.618000000000002 -0.914 8.575000000000003 -0.927Q8.532000000000002 -0.9400000000000001 8.482000000000001 -0.9400000000000001Q8.418000000000001 -0.9400000000000001 8.356000000000002 -0.89Q8.294000000000002 -0.84 8.255000000000003 -0.755Q8.216000000000001 -0.67 8.216000000000001 -0.56H8.288000000000002Q8.288000000000002 -0.626 8.301000000000002 -0.6779999999999999Q8.314000000000002 -0.73 8.348000000000003 -0.76Q8.382000000000001 -0.79 8.442000000000002 -0.79Q8.482000000000001 -0.79 8.508000000000003 -0.779Q8.534000000000002 -0.768 8.566 -0.744Z M8.966000000000001 -0.28400000000000003Q8.966000000000001 -0.334 8.990000000000002 -0.37Q9.014000000000001 -0.406 9.063000000000002 -0.42600000000000005Q9.112000000000002 -0.446 9.190000000000001 -0.446Q9.274000000000001 -0.446 9.348000000000003 -0.42500000000000004Q9.422000000000002 -0.404 9.492 -0.356V-0.45Q9.478000000000002 -0.468 9.438000000000002 -0.497Q9.398000000000001 -0.526 9.331000000000001 -0.549Q9.264000000000001 -0.5720000000000001 9.164000000000001 -0.5720000000000001Q8.994000000000002 -0.5720000000000001 8.899000000000001 -0.49100000000000005Q8.804000000000002 -0.41000000000000003 8.804000000000002 -0.276Q8.804000000000002 -0.182 8.848000000000003 -0.11599999999999999Q8.892000000000001 -0.05 8.965000000000002 -0.015000000000000001Q9.038000000000002 0.02 9.122000000000002 0.02Q9.198000000000002 0.02 9.275000000000002 -0.008000000000000002Q9.352000000000002 -0.036000000000000004 9.405000000000001 -0.094Q9.458000000000002 -0.152 9.458000000000002 -0.24L9.426000000000002 -0.36Q9.426000000000002 -0.28800000000000003 9.391000000000002 -0.233Q9.356000000000002 -0.178 9.297 -0.148Q9.238000000000001 -0.11800000000000001 9.164000000000001 -0.11800000000000001Q9.106000000000002 -0.11800000000000001 9.061000000000002 -0.137Q9.016000000000002 -0.156 8.991000000000001 -0.194Q8.966000000000001 -0.232 8.966000000000001 -0.28400000000000003ZM8.942000000000002 -0.708Q8.964000000000002 -0.724 9.002000000000002 -0.746Q9.040000000000001 -0.768 9.095000000000002 -0.784Q9.150000000000002 -0.8 9.218000000000002 -0.8Q9.260000000000002 -0.8 9.298000000000002 -0.792Q9.336000000000002 -0.784 9.365000000000002 -0.766Q9.394000000000002 -0.748 9.410000000000002 -0.7170000000000001Q9.426000000000002 -0.686 9.426000000000002 -0.638V0.0H9.586000000000002V-0.66Q9.586000000000002 -0.75 9.541000000000002 -0.812Q9.496000000000002 -0.874 9.415000000000003 -0.907Q9.334000000000001 -0.9400000000000001 9.226 -0.9400000000000001Q9.098 -0.9400000000000001 9.007000000000001 -0.902Q8.916000000000002 -0.864 8.864 -0.8260000000000001Z M10.008000000000001 -0.46Q10.008000000000001 -0.556 10.049000000000001 -0.631Q10.090000000000002 -0.706 10.161000000000001 -0.748Q10.232000000000001 -0.79 10.322000000000001 -0.79Q10.396 -0.79 10.461000000000002 -0.767Q10.526000000000002 -0.744 10.574000000000002 -0.706Q10.622000000000002 -0.668 10.642000000000001 -0.622V-0.8220000000000001Q10.594000000000001 -0.878 10.505000000000003 -0.909Q10.416000000000002 -0.9400000000000001 10.322000000000001 -0.9400000000000001Q10.188 -0.9400000000000001 10.080000000000002 -0.8780000000000001Q9.972000000000001 -0.8160000000000001 9.909000000000002 -0.708Q9.846000000000002 -0.6 9.846000000000002 -0.46Q9.846000000000002 -0.322 9.909000000000002 -0.21300000000000002Q9.972000000000001 -0.10400000000000001 10.080000000000002 -0.042Q10.188 0.02 10.322000000000001 0.02Q10.416000000000002 0.02 10.505000000000003 -0.011000000000000001Q10.594000000000001 -0.042 10.642000000000001 -0.098V-0.298Q10.622000000000002 -0.254 10.574000000000002 -0.215Q10.526000000000002 -0.176 10.461000000000002 -0.153Q10.396 -0.13 10.322000000000001 -0.13Q10.232000000000001 -0.13 10.161000000000001 -0.173Q10.090000000000002 -0.216 10.049000000000001 -0.29Q10.008000000000001 -0.364 10.008000000000001 -0.46Z M11.132000000000001 -1.56H10.972000000000001V0.0H11.132000000000001ZM11.562000000000001 -0.56V0.0H11.722000000000001V-0.58Q11.722000000000001 -0.7000000000000001 11.683000000000002 -0.78Q11.644000000000002 -0.86 11.573 -0.9Q11.502 -0.9400000000000001 11.406 -0.9400000000000001Q11.31 -0.9400000000000001 11.237000000000002 -0.89Q11.164000000000001 -0.84 11.122000000000002 -0.755Q11.080000000000002 -0.67 11.080000000000002 -0.56H11.132000000000001Q11.132000000000001 -0.626 11.161000000000001 -0.6779999999999999Q11.190000000000001 -0.73 11.243000000000002 -0.76Q11.296000000000001 -0.79 11.366000000000001 -0.79Q11.464 -0.79 11.513000000000002 -0.732Q11.562000000000001 -0.674 11.562000000000001 -0.56Z M11.962000000000002 -0.92V-0.77H12.422000000000002V-0.92ZM12.112000000000002 -1.24V0.0H12.272000000000002V-1.24Z M13.442000000000002 -0.7000000000000001Q13.442000000000002 -0.8220000000000001 13.466000000000001 -0.925Q13.490000000000002 -1.028 13.536000000000001 -1.103Q13.582000000000003 -1.178 13.647000000000002 -1.2189999999999999Q13.712000000000002 -1.26 13.792000000000002 -1.26Q13.874000000000002 -1.26 13.938000000000002 -1.2189999999999999Q14.002000000000002 -1.178 14.048000000000002 -1.103Q14.094000000000001 -1.028 14.118000000000002 -0.925Q14.142000000000001 -0.8220000000000001 14.142000000000001 -0.7000000000000001Q14.142000000000001 -0.578 14.118000000000002 -0.475Q14.094000000000001 -0.372 14.048000000000002 -0.297Q14.002000000000002 -0.222 13.938000000000002 -0.181Q13.874000000000002 -0.14 13.792000000000002 -0.14Q13.712000000000002 -0.14 13.647000000000002 -0.181Q13.582000000000003 -0.222 13.536000000000001 -0.297Q13.490000000000002 -0.372 13.466000000000001 -0.475Q13.442000000000002 -0.578 13.442000000000002 -0.7000000000000001ZM13.272000000000002 -0.7000000000000001Q13.272000000000002 -0.49 13.338000000000001 -0.328Q13.404000000000002 -0.166 13.521 -0.07300000000000001Q13.638000000000002 0.02 13.792000000000002 0.02Q13.946000000000002 0.02 14.063000000000002 -0.07300000000000001Q14.180000000000001 -0.166 14.246000000000002 -0.328Q14.312000000000001 -0.49 14.312000000000001 -0.7000000000000001Q14.312000000000001 -0.91 14.246000000000002 -1.072Q14.180000000000001 -1.234 14.063000000000002 -1.327Q13.946000000000002 -1.42 13.792000000000002 -1.42Q13.638000000000002 -1.42 13.521 -1.327Q13.404000000000002 -1.234 13.338000000000001 -1.072Q13.272000000000002 -0.91 13.272000000000002 -0.7000000000000001Z M14.722000000000001 -0.7000000000000001Q14.722000000000001 -0.8220000000000001 14.746000000000002 -0.925Q14.770000000000001 -1.028 14.816000000000003 -1.103Q14.862000000000002 -1.178 14.927000000000001 -1.2189999999999999Q14.992 -1.26 15.072000000000001 -1.26Q15.154000000000002 -1.26 15.218000000000002 -1.2189999999999999Q15.282000000000002 -1.178 15.328000000000001 -1.103Q15.374 -1.028 15.398 -0.925Q15.422 -0.8220000000000001 15.422 -0.7000000000000001Q15.422 -0.578 15.398 -0.475Q15.374 -0.372 15.328000000000001 -0.297Q15.282000000000002 -0.222 15.218000000000002 -0.181Q15.154000000000002 -0.14 15.072000000000001 -0.14Q14.992 -0.14 14.927000000000001 -0.181Q14.862000000000002 -0.222 14.816000000000003 -0.297Q14.770000000000001 -0.372 14.746000000000002 -0.475Q14.722000000000001 -0.578 14.722000000000001 -0.7000000000000001ZM14.552000000000001 -0.7000000000000001Q14.552000000000001 -0.49 14.618000000000002 -0.328Q14.684000000000001 -0.166 14.801000000000002 -0.07300000000000001Q14.918000000000001 0.02 15.072000000000001 0.02Q15.226 0.02 15.343 -0.07300000000000001Q15.46 -0.166 15.526000000000002 -0.328Q15.592000000000002 -0.49 15.592000000000002 -0.7000000000000001Q15.592000000000002 -0.91 15.526000000000002 -1.072Q15.46 -1.234 15.343 -1.327Q15.226 -1.42 15.072000000000001 -1.42Q14.918000000000001 -1.42 14.801000000000002 -1.327Q14.684000000000001 -1.234 14.618000000000002 -1.072Q14.552000000000001 -0.91 14.552000000000001 -0.7000000000000001Z M16.002000000000002 -0.7000000000000001Q16.002000000000002 -0.8220000000000001 16.026000000000003 -0.925Q16.05 -1.028 16.096 -1.103Q16.142 -1.178 16.207 -1.2189999999999999Q16.272000000000002 -1.26 16.352 -1.26Q16.434 -1.26 16.498 -1.2189999999999999Q16.562 -1.178 16.608 -1.103Q16.654 -1.028 16.678 -0.925Q16.702 -0.8220000000000001 16.702 -0.7000000000000001Q16.702 -0.578 16.678 -0.475Q16.654 -0.372 16.608 -0.297Q16.562 -0.222 16.498 -0.181Q16.434 -0.14 16.352 -0.14Q16.272000000000002 -0.14 16.207 -0.181Q16.142 -0.222 16.096 -0.297Q16.05 -0.372 16.026000000000003 -0.475Q16.002000000000002 -0.578 16.002000000000002 -0.7000000000000001ZM15.832 -0.7000000000000001Q15.832 -0.49 15.898 -0.328Q15.964 -0.166 16.081 -0.07300000000000001Q16.198 0.02 16.352 0.02Q16.506 0.02 16.623 -0.07300000000000001Q16.740000000000002 -0.166 16.806 -0.328Q16.872 -0.49 16.872 -0.7000000000000001Q16.872 -0.91 16.806 -1.072Q16.740000000000002 -1.234 16.623 -1.327Q16.506 -1.42 16.352 -1.42Q16.198 -1.42 16.081 -1.327Q15.964 -1.234 15.898 -1.072Q15.832 -0.91 15.832 -0.7000000000000001Z" fill="#4A423C"/></g><g transform="translate(8.000,115.200)"><path d="M0.16 -1.124 0.47000000000000003 -1.216V0.0H0.64V-1.42L0.16 -1.3Z M1.23 -0.7000000000000001Q1.23 -0.8220000000000001 1.254 -0.925Q1.278 -1.028 1.324 -1.103Q1.37 -1.178 1.435 -1.2189999999999999Q1.5 -1.26 1.58 -1.26Q1.662 -1.26 1.726 -1.2189999999999999Q1.79 -1.178 1.836 -1.103Q1.8820000000000001 -1.028 1.9060000000000001 -0.925Q1.9300000000000002 -0.8220000000000001 1.9300000000000002 -0.7000000000000001Q1.9300000000000002 -0.578 1.9060000000000001 -0.475Q1.8820000000000001 -0.372 1.836 -0.297Q1.79 -0.222 1.726 -0.181Q1.662 -0.14 1.58 -0.14Q1.5 -0.14 1.435 -0.181Q1.37 -0.222 1.324 -0.297Q1.278 -0.372 1.254 -0.475Q1.23 -0.578 1.23 -0.7000000000000001ZM1.06 -0.7000000000000001Q1.06 -0.49 1.126 -0.328Q1.192 -0.166 1.309 -0.07300000000000001Q1.426 0.02 1.58 0.02Q1.734 0.02 1.851 -0.07300000000000001Q1.968 -0.166 2.034 -0.328Q2.1 -0.49 2.1 -0.7000000000000001Q2.1 -0.91 2.034 -1.072Q1.968 -1.234 1.851 -1.327Q1.734 -1.42 1.58 -1.42Q1.426 -1.42 1.309 -1.327Q1.192 -1.234 1.126 -1.072Q1.06 -0.91 1.06 -0.7000000000000001Z M2.42 -1.124 2.73 -1.216V0.0H2.9V-1.42L2.42 -1.3Z M4.288 -0.46Q4.288 -0.6 4.234 -0.706Q4.18 -0.812 4.085 -0.8720000000000001Q3.9899999999999998 -0.932 3.8699999999999997 -0.932Q3.8179999999999996 -0.932 3.7649999999999997 -0.919Q3.7119999999999997 -0.906 3.662 -0.88L3.756 -1.25H4.284V-1.4000000000000001H3.6239999999999997L3.44 -0.654Q3.5119999999999996 -0.704 3.5669999999999997 -0.731Q3.622 -0.758 3.6769999999999996 -0.769Q3.7319999999999998 -0.78 3.798 -0.78Q3.888 -0.78 3.9589999999999996 -0.74Q4.029999999999999 -0.7000000000000001 4.071 -0.6280000000000001Q4.112 -0.556 4.112 -0.46Q4.112 -0.364 4.075 -0.292Q4.038 -0.22 3.968 -0.18Q3.8979999999999997 -0.14 3.798 -0.14Q3.7219999999999995 -0.14 3.6519999999999997 -0.17300000000000001Q3.582 -0.20600000000000002 3.529 -0.259Q3.476 -0.312 3.444 -0.372L3.3 -0.274Q3.3459999999999996 -0.194 3.4129999999999994 -0.127Q3.4799999999999995 -0.06 3.5749999999999997 -0.019999999999999997Q3.67 0.02 3.798 0.02Q3.9 0.02 3.9879999999999995 -0.01Q4.076 -0.04 4.144 -0.1Q4.212 -0.16 4.25 -0.25Q4.288 -0.34 4.288 -0.46Z M5.988 -1.4000000000000001 5.69 -0.882 5.398 -1.4000000000000001H5.198L5.604 -0.734L5.148 0.0H5.348L5.688000000000001 -0.586L6.018 0.0H6.218L5.774 -0.734L6.188000000000001 -1.4000000000000001Z M7.178000000000001 -1.4000000000000001 6.880000000000001 -0.882 6.588000000000001 -1.4000000000000001H6.388000000000001L6.7940000000000005 -0.734L6.338 0.0H6.538L6.878 -0.586L7.208 0.0H7.408L6.964 -0.734L7.378 -1.4000000000000001Z M8.482000000000001 -0.42H9.222000000000001L9.162 -0.58H8.542ZM8.848 -1.084 9.088000000000001 -0.52 9.104000000000001 -0.48 9.308 0.0H9.498000000000001L8.848 -1.47L8.198 0.0H8.388L8.596 -0.492L8.612 -0.528Z M10.998000000000001 -0.58Q10.998000000000001 -0.6940000000000001 10.963000000000001 -0.775Q10.928 -0.856 10.862000000000002 -0.898Q10.796000000000001 -0.9400000000000001 10.702000000000002 -0.9400000000000001Q10.610000000000001 -0.9400000000000001 10.538 -0.897Q10.466000000000001 -0.854 10.418000000000001 -0.768Q10.386000000000001 -0.85 10.317 -0.895Q10.248000000000001 -0.9400000000000001 10.152000000000001 -0.9400000000000001Q10.066 -0.9400000000000001 10.003 -0.902Q9.940000000000001 -0.864 9.898000000000001 -0.786V-0.92H9.738000000000001V0.0H9.898000000000001V-0.56Q9.898000000000001 -0.632 9.924000000000001 -0.6839999999999999Q9.950000000000001 -0.736 9.998000000000001 -0.763Q10.046000000000001 -0.79 10.112000000000002 -0.79Q10.202000000000002 -0.79 10.245000000000001 -0.734Q10.288 -0.678 10.288 -0.56V0.0H10.448V-0.56Q10.448 -0.632 10.474 -0.6839999999999999Q10.500000000000002 -0.736 10.548000000000002 -0.763Q10.596 -0.79 10.662 -0.79Q10.752 -0.79 10.795000000000002 -0.734Q10.838000000000001 -0.678 10.838000000000001 -0.56V0.0H10.998000000000001Z M11.416000000000002 -0.28200000000000003 11.290000000000001 -0.20400000000000001Q11.316 -0.15 11.367 -0.098Q11.418000000000001 -0.046 11.492 -0.013Q11.566 0.02 11.658000000000001 0.02Q11.8 0.02 11.887 -0.060000000000000005Q11.974000000000002 -0.14 11.974000000000002 -0.26Q11.974000000000002 -0.342 11.935000000000002 -0.394Q11.896 -0.446 11.830000000000002 -0.483Q11.764000000000001 -0.52 11.684000000000001 -0.552Q11.636000000000001 -0.5720000000000001 11.592000000000002 -0.5940000000000001Q11.548000000000002 -0.616 11.520000000000001 -0.644Q11.492 -0.672 11.492 -0.708Q11.492 -0.754 11.528000000000002 -0.776Q11.564000000000002 -0.798 11.614 -0.798Q11.686000000000002 -0.798 11.743000000000002 -0.764Q11.8 -0.73 11.838000000000001 -0.678L11.966000000000001 -0.76Q11.938000000000002 -0.812 11.888000000000002 -0.8520000000000001Q11.838000000000001 -0.892 11.773000000000001 -0.916Q11.708000000000002 -0.9400000000000001 11.634000000000002 -0.9400000000000001Q11.560000000000002 -0.9400000000000001 11.491000000000003 -0.914Q11.422000000000002 -0.888 11.379000000000001 -0.8340000000000001Q11.336000000000002 -0.78 11.336000000000002 -0.6980000000000001Q11.336000000000002 -0.618 11.377000000000002 -0.565Q11.418000000000001 -0.512 11.479000000000001 -0.479Q11.540000000000001 -0.446 11.600000000000001 -0.422Q11.654000000000002 -0.402 11.702000000000002 -0.379Q11.750000000000002 -0.356 11.781000000000002 -0.32299999999999995Q11.812000000000001 -0.29 11.812000000000001 -0.242Q11.812000000000001 -0.188 11.773000000000001 -0.157Q11.734000000000002 -0.126 11.666000000000002 -0.126Q11.610000000000001 -0.126 11.563000000000002 -0.14700000000000002Q11.516000000000002 -0.168 11.48 -0.20400000000000001Q11.444 -0.24 11.416000000000002 -0.28200000000000003Z M12.124 -0.92V-0.77H12.584000000000001V-0.92ZM12.274000000000001 -1.24V0.0H12.434000000000001V-1.24Z M13.180000000000001 0.02Q13.328000000000001 0.02 13.437000000000001 -0.039Q13.546000000000001 -0.098 13.618000000000002 -0.214L13.488000000000001 -0.296Q13.438 -0.212 13.366 -0.17099999999999999Q13.294 -0.13 13.200000000000001 -0.13Q13.106000000000002 -0.13 13.040000000000003 -0.16999999999999998Q12.974000000000002 -0.21 12.940000000000001 -0.286Q12.906 -0.362 12.906 -0.47000000000000003Q12.908000000000001 -0.5760000000000001 12.943000000000001 -0.649Q12.978000000000002 -0.722 13.043000000000001 -0.761Q13.108 -0.8 13.200000000000001 -0.8Q13.278 -0.8 13.336000000000002 -0.766Q13.394000000000002 -0.732 13.427000000000001 -0.6719999999999999Q13.46 -0.612 13.46 -0.53Q13.46 -0.516 13.454 -0.495Q13.448 -0.47400000000000003 13.442000000000002 -0.464L13.506000000000002 -0.556H12.846000000000002V-0.42H13.632000000000001Q13.632000000000001 -0.424 13.633000000000001 -0.439Q13.634 -0.454 13.634 -0.468Q13.634 -0.614 13.582 -0.72Q13.530000000000001 -0.8260000000000001 13.433000000000002 -0.883Q13.336000000000002 -0.9400000000000001 13.200000000000001 -0.9400000000000001Q13.064000000000002 -0.9400000000000001 12.961000000000002 -0.8800000000000001Q12.858 -0.8200000000000001 12.801000000000002 -0.712Q12.744000000000002 -0.604 12.744000000000002 -0.46Q12.744000000000002 -0.318 12.799000000000001 -0.21000000000000002Q12.854000000000001 -0.10200000000000001 12.953000000000001 -0.041Q13.052000000000001 0.02 13.180000000000001 0.02Z M14.094000000000001 -0.92H13.934000000000001V0.0H14.094000000000001ZM14.372 -0.744 14.46 -0.876Q14.424000000000001 -0.914 14.381 -0.927Q14.338000000000001 -0.9400000000000001 14.288 -0.9400000000000001Q14.224 -0.9400000000000001 14.162 -0.89Q14.100000000000001 -0.84 14.061 -0.755Q14.022 -0.67 14.022 -0.56H14.094000000000001Q14.094000000000001 -0.626 14.107000000000001 -0.6779999999999999Q14.120000000000001 -0.73 14.154 -0.76Q14.188 -0.79 14.248000000000001 -0.79Q14.288 -0.79 14.314 -0.779Q14.34 -0.768 14.372 -0.744Z M15.39 -1.56V0.0H15.55V-1.56ZM14.620000000000001 -0.46Q14.620000000000001 -0.312 14.682000000000002 -0.20400000000000001Q14.744000000000002 -0.096 14.848 -0.038Q14.952 0.02 15.076 0.02Q15.192 0.02 15.278 -0.038Q15.364 -0.096 15.413 -0.20400000000000001Q15.462000000000002 -0.312 15.462000000000002 -0.46Q15.462000000000002 -0.61 15.413 -0.7170000000000001Q15.364 -0.8240000000000001 15.278 -0.8820000000000001Q15.192 -0.9400000000000001 15.076 -0.9400000000000001Q14.952 -0.9400000000000001 14.848 -0.8820000000000001Q14.744000000000002 -0.8240000000000001 14.682000000000002 -0.7170000000000001Q14.620000000000001 -0.61 14.620000000000001 -0.46ZM14.782 -0.46Q14.782 -0.5660000000000001 14.825 -0.64Q14.868 -0.714 14.940000000000001 -0.752Q15.012 -0.79 15.096 -0.79Q15.166 -0.79 15.234000000000002 -0.752Q15.302000000000001 -0.714 15.346 -0.64Q15.39 -0.5660000000000001 15.39 -0.46Q15.39 -0.354 15.346 -0.28Q15.302000000000001 -0.20600000000000002 15.234000000000002 -0.168Q15.166 -0.13 15.096 -0.13Q15.012 -0.13 14.940000000000001 -0.168Q14.868 -0.20600000000000002 14.825 -0.28Q14.782 -0.354 14.782 -0.46Z M15.992 -0.28400000000000003Q15.992 -0.334 16.016000000000002 -0.37Q16.040000000000003 -0.406 16.089000000000002 -0.42600000000000005Q16.138 -0.446 16.216 -0.446Q16.3 -0.446 16.374000000000002 -0.42500000000000004Q16.448 -0.404 16.518 -0.356V-0.45Q16.504 -0.468 16.464000000000002 -0.497Q16.424000000000003 -0.526 16.357000000000003 -0.549Q16.290000000000003 -0.5720000000000001 16.19 -0.5720000000000001Q16.020000000000003 -0.5720000000000001 15.925000000000002 -0.49100000000000005Q15.830000000000002 -0.41000000000000003 15.830000000000002 -0.276Q15.830000000000002 -0.182 15.874000000000002 -0.11599999999999999Q15.918000000000001 -0.05 15.991 -0.015000000000000001Q16.064 0.02 16.148 0.02Q16.224 0.02 16.301000000000002 -0.008000000000000002Q16.378 -0.036000000000000004 16.431 -0.094Q16.484 -0.152 16.484 -0.24L16.452 -0.36Q16.452 -0.28800000000000003 16.417 -0.233Q16.382 -0.178 16.323 -0.148Q16.264000000000003 -0.11800000000000001 16.19 -0.11800000000000001Q16.132 -0.11800000000000001 16.087000000000003 -0.137Q16.042 -0.156 16.017000000000003 -0.194Q15.992 -0.232 15.992 -0.28400000000000003ZM15.968000000000002 -0.708Q15.990000000000002 -0.724 16.028000000000002 -0.746Q16.066000000000003 -0.768 16.121000000000002 -0.784Q16.176000000000002 -0.8 16.244 -0.8Q16.286 -0.8 16.324 -0.792Q16.362000000000002 -0.784 16.391000000000002 -0.766Q16.42 -0.748 16.436 -0.7170000000000001Q16.452 -0.686 16.452 -0.638V0.0H16.612000000000002V-0.66Q16.612000000000002 -0.75 16.567 -0.812Q16.522000000000002 -0.874 16.441000000000003 -0.907Q16.360000000000003 -0.9400000000000001 16.252000000000002 -0.9400000000000001Q16.124000000000002 -0.9400000000000001 16.033 -0.902Q15.942000000000002 -0.864 15.89 -0.8260000000000001Z M18.222 -0.58Q18.222 -0.6940000000000001 18.187 -0.775Q18.152 -0.856 18.086 -0.898Q18.02 -0.9400000000000001 17.926000000000002 -0.9400000000000001Q17.834 -0.9400000000000001 17.762 -0.897Q17.69 -0.854 17.642000000000003 -0.768Q17.61 -0.85 17.541 -0.895Q17.472 -0.9400000000000001 17.376 -0.9400000000000001Q17.290000000000003 -0.9400000000000001 17.227000000000004 -0.902Q17.164 -0.864 17.122 -0.786V-0.92H16.962V0.0H17.122V-0.56Q17.122 -0.632 17.148 -0.6839999999999999Q17.174 -0.736 17.222 -0.763Q17.27 -0.79 17.336000000000002 -0.79Q17.426000000000002 -0.79 17.469 -0.734Q17.512 -0.678 17.512 -0.56V0.0H17.672V-0.56Q17.672 -0.632 17.698 -0.6839999999999999Q17.724 -0.736 17.772 -0.763Q17.82 -0.79 17.886000000000003 -0.79Q17.976000000000003 -0.79 18.019000000000002 -0.734Q18.062 -0.678 18.062 -0.56V0.0H18.222Z M18.748 -0.22 18.572000000000003 0.298 18.688000000000002 0.34 18.908 -0.16Z M21.048000000000002 -1.4000000000000001V-0.358L19.988000000000003 -1.47V0.0H20.158V-1.042L21.218000000000004 0.07V-1.4000000000000001Z M21.618000000000002 -1.4000000000000001V0.0H22.338V-0.16H21.788V-1.4000000000000001Z" fill="#4A423C"/></g><rect x="8" y="124" width="84" height="18" fill="none" stroke="#CCC4B6" stroke-width="0.2"/><g transform="translate(40.780,135.000)"><path d="M0.21 -0.5285714285714286H0.37142857142857144Q0.4614285714285714 -0.5285714285714286 0.5278571428571428 -0.5542857142857143Q0.5942857142857143 -0.58 0.6314285714285715 -0.63Q0.6685714285714286 -0.68 0.6685714285714286 -0.75Q0.6685714285714286 -0.8357142857142857 0.6314285714285715 -0.8907142857142858Q0.5942857142857143 -0.9457142857142857 0.5278571428571428 -0.9728571428571429Q0.4614285714285714 -1.0 0.37142857142857144 -1.0H0.11428571428571428V0.0H0.38571428571428573Q0.4828571428571429 0.0 0.5592857142857143 -0.03214285714285714Q0.6357142857142857 -0.06428571428571428 0.6807142857142857 -0.12928571428571428Q0.7257142857142858 -0.19428571428571428 0.7257142857142858 -0.29285714285714287Q0.7257142857142858 -0.36142857142857143 0.7 -0.4114285714285714Q0.6742857142857143 -0.4614285714285714 0.6278571428571429 -0.49357142857142855Q0.5814285714285714 -0.5257142857142857 0.52 -0.5414285714285714Q0.4585714285714286 -0.5571428571428572 0.38571428571428573 -0.5571428571428572H0.21V-0.49H0.38571428571428573Q0.4342857142857143 -0.49 0.47428571428571425 -0.47785714285714287Q0.5142857142857142 -0.4657142857142857 0.5435714285714286 -0.4414285714285714Q0.5728571428571428 -0.41714285714285715 0.5885714285714285 -0.38142857142857145Q0.6042857142857143 -0.3457142857142857 0.6042857142857143 -0.3Q0.6042857142857143 -0.23857142857142857 0.5764285714285715 -0.19571428571428573Q0.5485714285714286 -0.15285714285714286 0.49928571428571433 -0.13Q0.45 -0.10714285714285714 0.38571428571428573 -0.10714285714285714H0.2357142857142857V-0.8928571428571429H0.37142857142857144Q0.4471428571428571 -0.8928571428571429 0.4971428571428571 -0.8535714285714286Q0.5471428571428572 -0.8142857142857143 0.5471428571428572 -0.7428571428571429Q0.5471428571428572 -0.6957142857142857 0.5242857142857142 -0.6628571428571428Q0.5014285714285714 -0.63 0.4614285714285714 -0.6128571428571429Q0.42142857142857143 -0.5957142857142858 0.37142857142857144 -0.5957142857142858H0.21Z M1.2999999999999998 -0.3H1.8285714285714283L1.7857142857142856 -0.4142857142857143H1.3428571428571427ZM1.5614285714285714 -0.7742857142857142 1.7328571428571427 -0.37142857142857144 1.7442857142857142 -0.34285714285714286 1.89 0.0H2.025714285714286L1.5614285714285714 -1.05L1.097142857142857 0.0H1.2328571428571427L1.3814285714285712 -0.3514285714285714L1.3928571428571428 -0.37714285714285717Z M2.6399999999999997 -0.4928571428571429 2.9828571428571427 0.0H3.1328571428571426L2.7757142857142854 -0.4928571428571429ZM2.4614285714285713 -1.0V0.0H2.5828571428571427V-1.0ZM2.5285714285714285 -0.8928571428571429H2.7328571428571427Q2.797142857142857 -0.8928571428571429 2.8464285714285715 -0.8700000000000001Q2.8957142857142855 -0.8471428571428572 2.923571428571428 -0.8042857142857143Q2.951428571428571 -0.7614285714285715 2.951428571428571 -0.7Q2.951428571428571 -0.6385714285714286 2.923571428571428 -0.5957142857142856Q2.8957142857142855 -0.5528571428571428 2.8464285714285715 -0.53Q2.797142857142857 -0.5071428571428571 2.7328571428571427 -0.5071428571428571H2.5285714285714285V-0.4H2.7328571428571427Q2.83 -0.4 2.906428571428571 -0.43642857142857144Q2.9828571428571427 -0.47285714285714286 3.027857142857143 -0.5407142857142857Q3.072857142857143 -0.6085714285714285 3.072857142857143 -0.7Q3.072857142857143 -0.7928571428571428 3.027857142857143 -0.86Q2.9828571428571427 -0.9271428571428572 2.906428571428571 -0.9635714285714285Q2.83 -1.0 2.7328571428571427 -1.0H2.5285714285714285Z M3.647142857142857 -0.5Q3.647142857142857 -0.6171428571428571 3.699285714285714 -0.705Q3.7514285714285713 -0.7928571428571428 3.8357142857142854 -0.8428571428571429Q3.92 -0.8928571428571429 4.018571428571429 -0.8928571428571429Q4.09 -0.8928571428571429 4.149285714285714 -0.8742857142857143Q4.208571428571428 -0.8557142857142858 4.257142857142857 -0.8221428571428572Q4.305714285714286 -0.7885714285714286 4.34 -0.7442857142857143V-0.9042857142857142Q4.277142857142857 -0.96 4.202857142857143 -0.9871428571428571Q4.128571428571428 -1.0142857142857142 4.018571428571429 -1.0142857142857142Q3.914285714285714 -1.0142857142857142 3.8235714285714284 -0.9764285714285714Q3.7328571428571427 -0.9385714285714286 3.664285714285714 -0.8692857142857143Q3.5957142857142856 -0.8 3.557142857142857 -0.7057142857142857Q3.5185714285714282 -0.6114285714285714 3.5185714285714282 -0.5Q3.5185714285714282 -0.38857142857142857 3.557142857142857 -0.29428571428571426Q3.5957142857142856 -0.2 3.664285714285714 -0.13071428571428573Q3.7328571428571427 -0.06142857142857143 3.8235714285714284 -0.023571428571428573Q3.914285714285714 0.014285714285714285 4.018571428571429 0.014285714285714285Q4.128571428571428 0.014285714285714285 4.202857142857143 -0.012857142857142859Q4.277142857142857 -0.04 4.34 -0.09571428571428571V-0.2557142857142857Q4.305714285714286 -0.21142857142857144 4.257142857142857 -0.17785714285714288Q4.208571428571428 -0.1442857142857143 4.149285714285714 -0.12571428571428572Q4.09 -0.10714285714285714 4.018571428571429 -0.10714285714285714Q3.92 -0.10714285714285714 3.8357142857142854 -0.15714285714285714Q3.7514285714285713 -0.20714285714285716 3.699285714285714 -0.2957142857142857Q3.647142857142857 -0.3842857142857143 3.647142857142857 -0.5Z M4.94 -0.5Q4.94 -0.6128571428571429 4.989285714285715 -0.7014285714285715Q5.038571428571429 -0.79 5.1242857142857146 -0.8414285714285714Q5.21 -0.8928571428571429 5.3185714285714285 -0.8928571428571429Q5.428571428571429 -0.8928571428571429 5.513571428571429 -0.8414285714285714Q5.598571428571429 -0.79 5.647857142857143 -0.7014285714285715Q5.6971428571428575 -0.6128571428571429 5.6971428571428575 -0.5Q5.6971428571428575 -0.3871428571428571 5.647857142857143 -0.29857142857142854Q5.598571428571429 -0.21 5.513571428571429 -0.15857142857142856Q5.428571428571429 -0.10714285714285714 5.3185714285714285 -0.10714285714285714Q5.21 -0.10714285714285714 5.1242857142857146 -0.15857142857142856Q5.038571428571429 -0.21 4.989285714285715 -0.29857142857142854Q4.94 -0.3871428571428571 4.94 -0.5ZM4.811428571428571 -0.5Q4.811428571428571 -0.3914285714285714 4.849285714285714 -0.29714285714285715Q4.887142857142857 -0.20285714285714285 4.9557142857142855 -0.13357142857142856Q5.024285714285714 -0.06428571428571428 5.117142857142857 -0.024999999999999998Q5.21 0.014285714285714285 5.3185714285714285 0.014285714285714285Q5.428571428571429 0.014285714285714285 5.520714285714286 -0.024999999999999998Q5.612857142857143 -0.06428571428571428 5.6814285714285715 -0.13357142857142856Q5.75 -0.20285714285714285 5.787857142857143 -0.29714285714285715Q5.825714285714286 -0.3914285714285714 5.825714285714286 -0.5Q5.825714285714286 -0.61 5.787857142857143 -0.7035714285714285Q5.75 -0.7971428571428572 5.6814285714285715 -0.8664285714285714Q5.612857142857143 -0.9357142857142857 5.520714285714286 -0.975Q5.428571428571429 -1.0142857142857142 5.3185714285714285 -1.0142857142857142Q5.21 -1.0142857142857142 5.117142857142857 -0.975Q5.024285714285714 -0.9357142857142857 4.9557142857142855 -0.8664285714285714Q4.887142857142857 -0.7971428571428572 4.849285714285714 -0.7035714285714285Q4.811428571428571 -0.61 4.811428571428571 -0.5Z M6.311428571428571 -1.0V0.0H6.432857142857143V-1.0ZM6.611428571428572 0.0Q6.757142857142858 0.0 6.870000000000001 -0.06285714285714286Q6.982857142857143 -0.12571428571428572 7.047142857142857 -0.23785714285714285Q7.111428571428572 -0.35 7.111428571428572 -0.5Q7.111428571428572 -0.65 7.047142857142857 -0.7621428571428572Q6.982857142857143 -0.8742857142857143 6.870000000000001 -0.9371428571428572Q6.757142857142858 -1.0 6.611428571428572 -1.0H6.378571428571429V-0.8785714285714286H6.611428571428572Q6.695714285714286 -0.8785714285714286 6.765714285714286 -0.8521428571428571Q6.835714285714286 -0.8257142857142857 6.885714285714286 -0.7764285714285715Q6.935714285714286 -0.7271428571428571 6.962857142857143 -0.6571428571428571Q6.99 -0.5871428571428572 6.99 -0.5Q6.99 -0.41285714285714287 6.962857142857143 -0.34285714285714286Q6.935714285714286 -0.27285714285714285 6.885714285714286 -0.2235714285714286Q6.835714285714286 -0.1742857142857143 6.765714285714286 -0.14785714285714285Q6.695714285714286 -0.12142857142857143 6.611428571428572 -0.12142857142857143H6.378571428571429V0.0Z M7.664285714285715 0.0H8.168571428571429V-0.11428571428571428H7.664285714285715ZM7.664285714285715 -0.8857142857142857H8.168571428571429V-1.0H7.664285714285715ZM7.664285714285715 -0.4857142857142857H8.14V-0.6H7.664285714285715ZM7.597142857142857 -1.0V0.0H7.718571428571429V-1.0Z M9.925714285714287 -1.0 9.34714285714286 0.21428571428571427H9.461428571428574L10.040000000000001 -1.0Z M11.304285714285717 -0.5Q11.304285714285717 -0.6171428571428571 11.356428571428573 -0.705Q11.408571428571431 -0.7928571428571428 11.492857142857146 -0.8428571428571429Q11.57714285714286 -0.8928571428571429 11.675714285714289 -0.8928571428571429Q11.74714285714286 -0.8928571428571429 11.806428571428574 -0.8742857142857143Q11.865714285714288 -0.8557142857142858 11.914285714285718 -0.8221428571428572Q11.962857142857146 -0.7885714285714286 11.99714285714286 -0.7442857142857143V-0.9042857142857142Q11.934285714285718 -0.96 11.860000000000003 -0.9871428571428571Q11.785714285714288 -1.0142857142857142 11.675714285714289 -1.0142857142857142Q11.571428571428575 -1.0142857142857142 11.480714285714289 -0.9764285714285714Q11.390000000000004 -0.9385714285714286 11.321428571428575 -0.8692857142857143Q11.252857142857145 -0.8 11.214285714285717 -0.7057142857142857Q11.175714285714289 -0.6114285714285714 11.175714285714289 -0.5Q11.175714285714289 -0.38857142857142857 11.214285714285717 -0.29428571428571426Q11.252857142857145 -0.2 11.321428571428575 -0.13071428571428573Q11.390000000000004 -0.06142857142857143 11.480714285714289 -0.023571428571428573Q11.571428571428575 0.014285714285714285 11.675714285714289 0.014285714285714285Q11.785714285714288 0.014285714285714285 11.860000000000003 -0.012857142857142859Q11.934285714285718 -0.04 11.99714285714286 -0.09571428571428571V-0.2557142857142857Q11.962857142857146 -0.21142857142857144 11.914285714285718 -0.17785714285714288Q11.865714285714288 -0.1442857142857143 11.806428571428574 -0.12571428571428572Q11.74714285714286 -0.10714285714285714 11.675714285714289 -0.10714285714285714Q11.57714285714286 -0.10714285714285714 11.492857142857146 -0.15714285714285714Q11.408571428571431 -0.20714285714285716 11.356428571428573 -0.2957142857142857Q11.304285714285717 -0.3842857142857143 11.304285714285717 -0.5Z M12.600000000000005 -0.3H13.128571428571433L13.085714285714289 -0.4142857142857143H12.642857142857148ZM12.861428571428576 -0.7742857142857142 13.032857142857146 -0.37142857142857144 13.044285714285719 -0.34285714285714286 13.190000000000005 0.0H13.32571428571429L12.861428571428576 -1.05L12.397142857142862 0.0H12.532857142857146L12.681428571428576 -0.3514285714285714L12.692857142857147 -0.37714285714285717Z M13.940000000000003 -0.4928571428571429 14.282857142857146 0.0H14.432857142857147L14.07571428571429 -0.4928571428571429ZM13.761428571428574 -1.0V0.0H13.882857142857146V-1.0ZM13.828571428571431 -0.8928571428571429H14.032857142857146Q14.09714285714286 -0.8928571428571429 14.146428571428574 -0.8700000000000001Q14.195714285714288 -0.8471428571428572 14.223571428571432 -0.8042857142857143Q14.251428571428574 -0.7614285714285715 14.251428571428574 -0.7Q14.251428571428574 -0.6385714285714286 14.223571428571432 -0.5957142857142856Q14.195714285714288 -0.5528571428571428 14.146428571428574 -0.53Q14.09714285714286 -0.5071428571428571 14.032857142857146 -0.5071428571428571H13.828571428571431V-0.4H14.032857142857146Q14.130000000000003 -0.4 14.206428571428575 -0.43642857142857144Q14.282857142857146 -0.47285714285714286 14.327857142857146 -0.5407142857142857Q14.372857142857146 -0.6085714285714285 14.372857142857146 -0.7Q14.372857142857146 -0.7928571428571428 14.327857142857146 -0.86Q14.282857142857146 -0.9271428571428572 14.206428571428575 -0.9635714285714285Q14.130000000000003 -1.0 14.032857142857146 -1.0H13.828571428571431Z M15.054285714285717 -0.4928571428571429 15.39714285714286 0.0H15.54714285714286L15.190000000000003 -0.4928571428571429ZM14.875714285714288 -1.0V0.0H14.99714285714286V-1.0ZM14.942857142857145 -0.8928571428571429H15.14714285714286Q15.211428571428574 -0.8928571428571429 15.260714285714288 -0.8700000000000001Q15.310000000000002 -0.8471428571428572 15.337857142857146 -0.8042857142857143Q15.365714285714288 -0.7614285714285715 15.365714285714288 -0.7Q15.365714285714288 -0.6385714285714286 15.337857142857146 -0.5957142857142856Q15.310000000000002 -0.5528571428571428 15.260714285714288 -0.53Q15.211428571428574 -0.5071428571428571 15.14714285714286 -0.5071428571428571H14.942857142857145V-0.4H15.14714285714286Q15.244285714285716 -0.4 15.320714285714288 -0.43642857142857144Q15.39714285714286 -0.47285714285714286 15.44214285714286 -0.5407142857142857Q15.48714285714286 -0.6085714285714285 15.48714285714286 -0.7Q15.48714285714286 -0.7928571428571428 15.44214285714286 -0.86Q15.39714285714286 -0.9271428571428572 15.320714285714288 -0.9635714285714285Q15.244285714285716 -1.0 15.14714285714286 -1.0H14.942857142857145Z M15.990000000000002 -1.0V0.0H16.111428571428572V-1.0Z M16.721428571428575 0.0H17.22571428571429V-0.11428571428571428H16.721428571428575ZM16.721428571428575 -0.8857142857142857H17.22571428571429V-1.0H16.721428571428575ZM16.721428571428575 -0.4857142857142857H17.19714285714286V-0.6H16.721428571428575ZM16.654285714285717 -1.0V0.0H16.775714285714287V-1.0Z M17.93285714285715 -0.4928571428571429 18.27571428571429 0.0H18.42571428571429L18.06857142857143 -0.4928571428571429ZM17.754285714285718 -1.0V0.0H17.875714285714288V-1.0ZM17.821428571428577 -0.8928571428571429H18.02571428571429Q18.090000000000003 -0.8928571428571429 18.13928571428572 -0.8700000000000001Q18.188571428571432 -0.8471428571428572 18.216428571428576 -0.8042857142857143Q18.24428571428572 -0.7614285714285715 18.24428571428572 -0.7Q18.24428571428572 -0.6385714285714286 18.216428571428576 -0.5957142857142856Q18.188571428571432 -0.5528571428571428 18.13928571428572 -0.53Q18.090000000000003 -0.5071428571428571 18.02571428571429 -0.5071428571428571H17.821428571428577V-0.4H18.02571428571429Q18.122857142857146 -0.4 18.19928571428572 -0.43642857142857144Q18.27571428571429 -0.47285714285714286 18.32071428571429 -0.5407142857142857Q18.36571428571429 -0.6085714285714285 18.36571428571429 -0.7Q18.36571428571429 -0.7928571428571428 18.32071428571429 -0.86Q18.27571428571429 -0.9271428571428572 18.19928571428572 -0.9635714285714285Q18.122857142857146 -1.0 18.02571428571429 -1.0H17.821428571428577Z" fill="#B9AFA0"/></g></svg>